<svg id="Layer_1" data-name="Layer 1" xmlns="http://www.w3.org/2000/svg" width="155.46" height="20.47" viewBox="0 0 155.46 20.47"><defs><style>.cls-1{fill:#3089d5;}</style></defs><title>LoadFiles</title><path class="cls-1" d="M109.26,52h-1.32V43.12H103V52h-1.31v-10h7.54Z" transform="translate(-76.55 -39.19)"/><path class="cls-1" d="M118,48.38a4.37,4.37,0,0,1-.77,2.72,2.48,2.48,0,0,1-2.09,1,2.71,2.71,0,0,1-2.12-.86v3.56h-1.27V44.6H113l.06.82a2.63,2.63,0,0,1,2.15-1,2.52,2.52,0,0,1,2.11,1,4.52,4.52,0,0,1,.77,2.8Zm-1.26-.14a3.27,3.27,0,0,0-.54-2,1.71,1.71,0,0,0-1.46-.72,1.86,1.86,0,0,0-1.72,1v3.53a1.86,1.86,0,0,0,1.74,1,1.71,1.71,0,0,0,1.44-.72A3.53,3.53,0,0,0,116.78,48.24Z" transform="translate(-76.55 -39.19)"/><path class="cls-1" d="M124.78,44.6h1.27V52h-1.27V46.61L121.37,52h-1.26V44.6h1.26V50Z" transform="translate(-76.55 -39.19)"/><path class="cls-1" d="M130.73,48.85h-.92V52h-1.27V44.6h1.27v3.13h.83l2.49-3.13h1.53l-2.93,3.56L134.9,52h-1.6Z" transform="translate(-76.55 -39.19)"/><path class="cls-1" d="M142.59,48.38a4.37,4.37,0,0,1-.78,2.72,2.47,2.47,0,0,1-2.09,1,2.74,2.74,0,0,1-2.12-.86v3.56h-1.26V44.6h1.15l.07.82a2.61,2.61,0,0,1,2.14-1,2.52,2.52,0,0,1,2.11,1,4.46,4.46,0,0,1,.78,2.8Zm-1.27-.14a3.27,3.27,0,0,0-.53-2,1.72,1.72,0,0,0-1.46-.72,1.87,1.87,0,0,0-1.73,1v3.53a1.86,1.86,0,0,0,1.74,1,1.72,1.72,0,0,0,1.45-.72A3.61,3.61,0,0,0,141.32,48.24Z" transform="translate(-76.55 -39.19)"/><path class="cls-1" d="M147.61,52.14a3.2,3.2,0,0,1-2.44-1,3.67,3.67,0,0,1-.95-2.64v-.24a4.44,4.44,0,0,1,.42-2A3.24,3.24,0,0,1,145.82,45a2.92,2.92,0,0,1,1.64-.49,2.74,2.74,0,0,1,2.24,1,4.12,4.12,0,0,1,.8,2.72v.52h-5a2.64,2.64,0,0,0,.64,1.77,2,2,0,0,0,1.55.67,2.24,2.24,0,0,0,1.14-.27,2.77,2.77,0,0,0,.81-.72l.77.6A3.11,3.11,0,0,1,147.61,52.14Zm-.15-6.63a1.7,1.7,0,0,0-1.29.55,2.69,2.69,0,0,0-.64,1.57h3.7v-.1a2.36,2.36,0,0,0-.52-1.49A1.56,1.56,0,0,0,147.46,45.51Z" transform="translate(-76.55 -39.19)"/><path class="cls-1" d="M158.36,52H157.1V45.65h-3.41V52h-1.27V44.6h5.94Z" transform="translate(-76.55 -39.19)"/><path class="cls-1" d="M165.53,44.6h1.26V52h-1.26V46.61L162.12,52h-1.27V44.6h1.27V50Z" transform="translate(-76.55 -39.19)"/><path class="cls-1" d="M174.67,45.63h-2.48V52h-1.27V45.63h-2.43v-1h6.18Z" transform="translate(-76.55 -39.19)"/><path class="cls-1" d="M177.63,47.15h1.92a3,3,0,0,1,2,.66,2.19,2.19,0,0,1,.73,1.74,2.27,2.27,0,0,1-.75,1.78,2.93,2.93,0,0,1-2,.67h-3.13V44.6h1.27Zm0,1V51h1.88a1.53,1.53,0,0,0,1.1-.37,1.3,1.3,0,0,0,.39-1,1.34,1.34,0,0,0-1.44-1.41Z" transform="translate(-76.55 -39.19)"/><path class="cls-1" d="M187.74,48.44a5.09,5.09,0,0,1,.72-2.91,2.25,2.25,0,0,1,2-1.06,2.32,2.32,0,0,1,1,.2V41.5h1.26v3.21a2.46,2.46,0,0,1,1.12-.24,2.26,2.26,0,0,1,2,1.06,5.39,5.39,0,0,1,.72,3,4.24,4.24,0,0,1-.72,2.6,2.3,2.3,0,0,1-2,1,2.64,2.64,0,0,1-1.14-.22v2.92h-1.26V52a2.61,2.61,0,0,1-1,.19,2.28,2.28,0,0,1-1.95-1,4.31,4.31,0,0,1-.72-2.64Zm1.27.14a3.3,3.3,0,0,0,.44,1.89,1.46,1.46,0,0,0,1.28.64,2.09,2.09,0,0,0,.72-.12V45.62a1.86,1.86,0,0,0-.71-.11,1.41,1.41,0,0,0-1.28.74A4.65,4.65,0,0,0,189,48.58Zm6.25-.14a4.13,4.13,0,0,0-.48-2.17,1.48,1.48,0,0,0-1.32-.76,2,2,0,0,0-.75.13V51a2.41,2.41,0,0,0,.77.11,1.53,1.53,0,0,0,1.31-.65A3.52,3.52,0,0,0,195.26,48.44Z" transform="translate(-76.55 -39.19)"/><path class="cls-1" d="M203.08,52a2.7,2.7,0,0,1-.17-.78,2.83,2.83,0,0,1-2.11.92,2.6,2.6,0,0,1-1.79-.62A2,2,0,0,1,198.3,50a2.12,2.12,0,0,1,.88-1.8,4.2,4.2,0,0,1,2.47-.63h1.23v-.59a1.42,1.42,0,0,0-.39-1,1.62,1.62,0,0,0-1.17-.39,1.86,1.86,0,0,0-1.14.34,1,1,0,0,0-.45.82h-1.27a1.79,1.79,0,0,1,.39-1.07,2.73,2.73,0,0,1,1.06-.81,3.63,3.63,0,0,1,1.48-.3,2.92,2.92,0,0,1,2,.64,2.31,2.31,0,0,1,.75,1.76v3.4a4.21,4.21,0,0,0,.26,1.62V52ZM201,51a2.26,2.26,0,0,0,1.13-.31,1.79,1.79,0,0,0,.77-.8V48.41h-1c-1.55,0-2.32.45-2.32,1.36a1.13,1.13,0,0,0,.4.93A1.52,1.52,0,0,0,201,51Z" transform="translate(-76.55 -39.19)"/><path class="cls-1" d="M211.27,44.6h1.26V52h-1.26V46.61L207.86,52h-1.27V44.6h1.27V50Zm.34-2.7a1.7,1.7,0,0,1-.57,1.34,2.42,2.42,0,0,1-3,0,1.68,1.68,0,0,1-.57-1.33h1a1,1,0,0,0,.26.75,1,1,0,0,0,.75.27,1.05,1.05,0,0,0,.75-.26,1,1,0,0,0,.27-.76Z" transform="translate(-76.55 -39.19)"/><path class="cls-1" d="M221,44.6V52H219.7V45.65h-2.51L217,48.42a6.18,6.18,0,0,1-.64,2.73,1.88,1.88,0,0,1-1.64.85h-.5V50.89l.36,0a1,1,0,0,0,.88-.71,8,8,0,0,0,.34-2.38L216,44.6Z" transform="translate(-76.55 -39.19)"/><path class="cls-1" d="M224.74,47.15h1.92a3,3,0,0,1,2,.66,2.23,2.23,0,0,1,.73,1.74,2.27,2.27,0,0,1-.75,1.78,2.94,2.94,0,0,1-2,.67h-3.13V44.6h1.27Zm0,1V51h1.88a1.53,1.53,0,0,0,1.1-.37,1.3,1.3,0,0,0,.39-1,1.41,1.41,0,0,0-.38-1,1.44,1.44,0,0,0-1.07-.4ZM232,52h-1.27V44.6H232Z" transform="translate(-76.55 -39.19)"/><path class="cls-1" d="M91.63,59.66a4.51,4.51,0,0,1-3.15-1.34L78.07,47.93a5.24,5.24,0,0,1-1.52-3.64,5.05,5.05,0,0,1,5.08-5.1,5.24,5.24,0,0,1,3.66,1.51l8.1,8.12a.44.44,0,0,1,.14.3,1.86,1.86,0,0,1-1,1,.44.44,0,0,1-.31-.13l-8.12-8.14a3.5,3.5,0,0,0-2.43-1,3.38,3.38,0,0,0-3.37,3.43,3.44,3.44,0,0,0,1,2.43L89.68,57.12a2.81,2.81,0,0,0,1.95.84,1.93,1.93,0,0,0,2-2A2.8,2.8,0,0,0,92.76,54L85,46.25a1.19,1.19,0,0,0-.8-.32.87.87,0,0,0-.9.9,1.19,1.19,0,0,0,.33.79l5.5,5.49a.43.43,0,0,1,.13.29,1.88,1.88,0,0,1-1,1.05.43.43,0,0,1-.3-.13l-5.49-5.5a2.8,2.8,0,0,1-.85-2,2.6,2.6,0,0,1,2.63-2.63,2.84,2.84,0,0,1,2,.84L94,52.83A4.46,4.46,0,0,1,95.31,56,3.61,3.61,0,0,1,91.63,59.66Z" transform="translate(-76.55 -39.19)"/><rect class="cls-1" x="150.9" y="16.31" width="4.01" height="1"/><rect class="cls-1" x="144.88" y="16.31" width="4.01" height="1"/><rect class="cls-1" x="138.86" y="16.31" width="4.01" height="1"/><rect class="cls-1" x="132.84" y="16.31" width="4.01" height="1"/><rect class="cls-1" x="126.82" y="16.31" width="4.01" height="1"/><rect class="cls-1" x="120.8" y="16.31" width="4.01" height="1"/><rect class="cls-1" x="114.77" y="16.31" width="4.01" height="1"/><rect class="cls-1" x="108.75" y="16.31" width="4.01" height="1"/><rect class="cls-1" x="102.73" y="16.31" width="4.01" height="1"/><rect class="cls-1" x="96.71" y="16.31" width="4.01" height="1"/><rect class="cls-1" x="90.69" y="16.31" width="4.01" height="1"/><rect class="cls-1" x="84.67" y="16.31" width="4.01" height="1"/><rect class="cls-1" x="78.65" y="16.31" width="4.01" height="1"/><rect class="cls-1" x="72.63" y="16.31" width="4.01" height="1"/><rect class="cls-1" x="66.6" y="16.31" width="4.01" height="1"/><rect class="cls-1" x="60.58" y="16.31" width="4.01" height="1"/><rect class="cls-1" x="54.56" y="16.31" width="4.01" height="1"/><rect class="cls-1" x="48.54" y="16.31" width="4.01" height="1"/><rect class="cls-1" x="42.52" y="16.31" width="4.01" height="1"/><rect class="cls-1" x="36.5" y="16.31" width="4.01" height="1"/><rect class="cls-1" x="30.48" y="16.31" width="4.01" height="1"/><rect class="cls-1" x="24.45" y="16.31" width="4.01" height="1"/></svg>