<svg id="Layer_1" data-name="Layer 1" xmlns="http://www.w3.org/2000/svg" width="100.36" height="14.67" viewBox="0 0 100.36 14.67"><defs><style>.cls-1{fill:#3089d5;}</style></defs><title>LoadMore</title><rect class="cls-1" x="96.34" y="13.67" width="4.01" height="1"/><rect class="cls-1" x="90.32" y="13.67" width="4.01" height="1"/><rect class="cls-1" x="84.3" y="13.67" width="4.01" height="1"/><rect class="cls-1" x="78.28" y="13.67" width="4.01" height="1"/><rect class="cls-1" x="72.26" y="13.67" width="4.01" height="1"/><rect class="cls-1" x="66.24" y="13.67" width="4.01" height="1"/><rect class="cls-1" x="60.21" y="13.67" width="4.01" height="1"/><rect class="cls-1" x="54.19" y="13.67" width="4.01" height="1"/><rect class="cls-1" x="48.17" y="13.67" width="4.01" height="1"/><rect class="cls-1" x="42.15" y="13.67" width="4.01" height="1"/><rect class="cls-1" x="36.13" y="13.67" width="4.01" height="1"/><rect class="cls-1" x="30.11" y="13.67" width="4.01" height="1"/><rect class="cls-1" x="24.09" y="13.67" width="4.01" height="1"/><rect class="cls-1" x="18.06" y="13.67" width="4.01" height="1"/><rect class="cls-1" x="12.04" y="13.67" width="4.01" height="1"/><rect class="cls-1" x="6.02" y="13.67" width="4.01" height="1"/><rect class="cls-1" y="13.67" width="4.01" height="1"/><path class="cls-1" d="M107,80.63a1.52,1.52,0,0,0-.58-1.26,2.5,2.5,0,0,0-1.62-.47,2.28,2.28,0,0,0-1.47.48,1.52,1.52,0,0,0-.59,1.2h-1.31a2.43,2.43,0,0,1,.43-1.42,2.85,2.85,0,0,1,1.22-1,4.69,4.69,0,0,1,4.31.39,2.53,2.53,0,0,1,.92,2.08,2.08,2.08,0,0,1-.42,1.26,2.86,2.86,0,0,1-1.18.9,2.29,2.29,0,0,1,1.75,2.33,2.59,2.59,0,0,1-1,2.13,4.24,4.24,0,0,1-2.67.78,4.38,4.38,0,0,1-1.8-.35,2.88,2.88,0,0,1-1.26-1,2.65,2.65,0,0,1-.45-1.55h1.31a1.65,1.65,0,0,0,.62,1.31,2.37,2.37,0,0,0,1.58.52,2.7,2.7,0,0,0,1.71-.5,1.58,1.58,0,0,0,.64-1.32c0-1.16-.72-1.76-2.16-1.78h-1.24V82.3H105a2.34,2.34,0,0,0,1.51-.45A1.51,1.51,0,0,0,107,80.63Z" transform="translate(-101.01 -77.83)"/><path class="cls-1" d="M114.93,87.92a3,3,0,0,1-.18-.78,2.82,2.82,0,0,1-2.1.91,2.59,2.59,0,0,1-1.8-.62,2,2,0,0,1-.7-1.56,2.1,2.1,0,0,1,.88-1.8,4.17,4.17,0,0,1,2.47-.64h1.23v-.58a1.39,1.39,0,0,0-.4-1,1.54,1.54,0,0,0-1.16-.4,1.9,1.9,0,0,0-1.14.34,1,1,0,0,0-.46.83H110.3a1.77,1.77,0,0,1,.39-1.07,2.78,2.78,0,0,1,1.07-.82,3.59,3.59,0,0,1,1.48-.3,3,3,0,0,1,2,.64,2.31,2.31,0,0,1,.76,1.76v3.41a4,4,0,0,0,.26,1.62v.11Zm-2.1-1a2.28,2.28,0,0,0,1.13-.3,2,2,0,0,0,.77-.8V84.33h-1c-1.55,0-2.32.45-2.32,1.36a1.18,1.18,0,0,0,.39.93A1.56,1.56,0,0,0,112.83,87Z" transform="translate(-101.01 -77.83)"/><path class="cls-1" d="M123.11,81.57H119.7v6.35h-1.28v-7.4h4.69Z" transform="translate(-101.01 -77.83)"/><path class="cls-1" d="M130.8,84.3A4.45,4.45,0,0,1,130,87a2.49,2.49,0,0,1-2.1,1,2.73,2.73,0,0,1-2.12-.85v3.56h-1.26V80.52h1.16l.06.82a2.59,2.59,0,0,1,2.14-1,2.53,2.53,0,0,1,2.11,1,4.45,4.45,0,0,1,.78,2.79Zm-1.27-.14a3.23,3.23,0,0,0-.53-2,1.72,1.72,0,0,0-1.46-.72,1.87,1.87,0,0,0-1.73,1V86a1.88,1.88,0,0,0,1.74,1A1.72,1.72,0,0,0,129,86.3,3.63,3.63,0,0,0,129.53,84.16Z" transform="translate(-101.01 -77.83)"/><path class="cls-1" d="M135.1,86.06l1.72-5.54h1.36l-3,8.54c-.46,1.23-1.19,1.84-2.19,1.84l-.24,0-.47-.09v-1l.34,0a1.7,1.7,0,0,0,1-.26,1.87,1.87,0,0,0,.59-1l.28-.76-2.64-7.31h1.38Z" transform="translate(-101.01 -77.83)"/><path class="cls-1" d="M143.72,82.54a1,1,0,0,0-.4-.82,1.73,1.73,0,0,0-1.08-.3,1.78,1.78,0,0,0-1.12.34,1,1,0,0,0-.45.82h-1.26a1.89,1.89,0,0,1,.81-1.57,3.75,3.75,0,0,1,4-.06,1.9,1.9,0,0,1,.73,1.59,1.5,1.5,0,0,1-.31.92,2.14,2.14,0,0,1-.85.66,1.69,1.69,0,0,1,1.29,1.72,1.91,1.91,0,0,1-.78,1.61,3.91,3.91,0,0,1-4.21,0,2,2,0,0,1-.83-1.69h1.26a1.17,1.17,0,0,0,.48.93,1.89,1.89,0,0,0,1.2.38,1.93,1.93,0,0,0,1.17-.33,1,1,0,0,0,.44-.87,1,1,0,0,0-.37-.89,2,2,0,0,0-1.16-.27h-1.27V83.61h1.38C143.29,83.59,143.72,83.23,143.72,82.54Z" transform="translate(-101.01 -77.83)"/><path class="cls-1" d="M151.9,80.52h1.26v7.4H151.9v-5.4l-3.41,5.4h-1.27v-7.4h1.27v5.4Z" transform="translate(-101.01 -77.83)"/><path class="cls-1" d="M161,81.55h-2.48v6.37h-1.27V81.55h-2.43v-1H161Z" transform="translate(-101.01 -77.83)"/><path class="cls-1" d="M164,83.07h1.92a3,3,0,0,1,2,.66,2.18,2.18,0,0,1,.73,1.74,2.27,2.27,0,0,1-.75,1.78,3,3,0,0,1-2,.67h-3.13v-7.4H164Zm0,1v2.78h1.88a1.57,1.57,0,0,0,1.1-.36,1.3,1.3,0,0,0,.39-1,1.41,1.41,0,0,0-.38-1,1.46,1.46,0,0,0-1.06-.41Z" transform="translate(-101.01 -77.83)"/><path class="cls-1" d="M177.46,88.05a3.25,3.25,0,0,1-2.45-1,3.67,3.67,0,0,1-.94-2.65v-.23a4.41,4.41,0,0,1,.42-2,3.31,3.31,0,0,1,1.17-1.36,3,3,0,0,1,1.64-.49,2.77,2.77,0,0,1,2.24,1,4.14,4.14,0,0,1,.8,2.72v.53h-5a2.64,2.64,0,0,0,.64,1.77,2,2,0,0,0,1.55.67,2.24,2.24,0,0,0,1.14-.27,2.8,2.8,0,0,0,.81-.73l.78.6A3.09,3.09,0,0,1,177.46,88.05Zm-.16-6.63A1.71,1.71,0,0,0,176,82a2.72,2.72,0,0,0-.64,1.56h3.71v-.09a2.45,2.45,0,0,0-.52-1.5A1.6,1.6,0,0,0,177.3,81.42Z" transform="translate(-101.01 -77.83)"/><path class="cls-1" d="M183.46,80.52v6.36h2.71V80.52h1.26v6.36h2.7V80.52h1.27v6.36h1l-.12,3.23h-1.14V87.92h-9v-7.4Z" transform="translate(-101.01 -77.83)"/><path class="cls-1" d="M197.05,88.05a3.27,3.27,0,0,1-2.45-1,3.67,3.67,0,0,1-.94-2.65v-.23a4.41,4.41,0,0,1,.42-2,3.26,3.26,0,0,1,1.18-1.36,3,3,0,0,1,1.63-.49,2.81,2.81,0,0,1,2.25,1,4.14,4.14,0,0,1,.8,2.72v.53h-5a2.69,2.69,0,0,0,.64,1.77,2,2,0,0,0,1.56.67,2.2,2.2,0,0,0,1.13-.27,3,3,0,0,0,.82-.73l.77.6A3.09,3.09,0,0,1,197.05,88.05Zm-.16-6.63a1.67,1.67,0,0,0-1.28.56,2.66,2.66,0,0,0-.64,1.56h3.7v-.09a2.45,2.45,0,0,0-.52-1.5A1.6,1.6,0,0,0,196.89,81.42Z" transform="translate(-101.01 -77.83)"/></svg>