<svg id="Layer_1" data-name="Layer 1" xmlns="http://www.w3.org/2000/svg" width="1.21cm" height="1.38cm" viewBox="0 0 34.18 39.23"><defs><style>.cls-1{fill:#1d3b54;}.cls-2{fill:#f4cc5b;}</style></defs><title>account</title><path class="cls-1" d="M1413.64-1925.24a1,1,0,0,0-1-1h-32.19a1,1,0,0,0-1,1v34.29a.94.94,0,0,0,.07.34,1,1,0,0,0,.32,1.12l2.92,2.27a1,1,0,0,0,1.23,0l2.31-1.79,2.31,1.79a1,1,0,0,0,1.23,0l2.31-1.79,2.31,1.79a1,1,0,0,0,1.23,0L1398-1889l2.31,1.79a1,1,0,0,0,1.22,0l2.32-1.79,2.31,1.79a1,1,0,0,0,1.23,0l2.32-1.79,2.31,1.79a1,1,0,0,0,.62.21,1,1,0,0,0,.79-.39,1,1,0,0,0,.2-.71.43.43,0,0,0,0-.05Zm-4.55,34.17-2.32,1.8-2.31-1.8a1,1,0,0,0-1.23,0l-2.31,1.8-2.31-1.8a1,1,0,0,0-1.23,0l-2.31,1.8-2.31-1.8a1,1,0,0,0-1.22,0l-2.32,1.8-2.31-1.8a1,1,0,0,0-1.22,0l-2.31,1.8-2-1.52a.76.76,0,0,0,0-.16v-33.29h30.19V-1890l-1.32-1A1,1,0,0,0,1409.09-1891.07Z" transform="translate(-1379.45 1926.24)"/><path class="cls-1" d="M1402.15-1915.39a.76.76,0,0,0-.75.75.75.75,0,0,0,.75.75h.48v.89a.75.75,0,0,0,.75.75.76.76,0,0,0,.75-.75v-.89h2.47a.74.74,0,0,0,.75-.75.75.75,0,0,0-.75-.75h-2.47v-1H1406a2,2,0,0,0,2-2,2,2,0,0,0-2-2h-2.58a.74.74,0,0,0-.75.75v1.74h-.48a.75.75,0,0,0-.75.75.76.76,0,0,0,.75.75h.48v1Zm2-3.46H1406a.49.49,0,0,1,.5.49.5.5,0,0,1-.5.5h-1.83Z" transform="translate(-1379.45 1926.24)"/><path class="cls-2" d="M1385.94-1918.85h10a.76.76,0,0,0,.75-.75.75.75,0,0,0-.75-.75h-10a.75.75,0,0,0-.75.75A.76.76,0,0,0,1385.94-1918.85Z" transform="translate(-1379.45 1926.24)"/><path class="cls-2" d="M1385.94-1915.24h7.37a.75.75,0,0,0,.75-.75.75.75,0,0,0-.75-.75h-7.37a.76.76,0,0,0-.75.75A.76.76,0,0,0,1385.94-1915.24Z" transform="translate(-1379.45 1926.24)"/><path class="cls-2" d="M1385.94-1912.66h7.37a.74.74,0,0,0,.75-.75.75.75,0,0,0-.75-.75h-7.37a.76.76,0,0,0-.75.75A.75.75,0,0,0,1385.94-1912.66Z" transform="translate(-1379.45 1926.24)"/><path class="cls-2" d="M1408.37-1906.77h-23.92a.76.76,0,0,0-.75.75v11a.76.76,0,0,0,.75.75h23.92a.76.76,0,0,0,.75-.75v-11A.76.76,0,0,0,1408.37-1906.77Zm-23.17,5.09a.74.74,0,0,0,.38.12h12.86v2h-12.86a.74.74,0,0,0-.38.12Zm14.74.12h7.27a.75.75,0,0,0,.41-.14v2.32a.75.75,0,0,0-.41-.14h-7.27Zm7.68-1.37a.74.74,0,0,0-.41-.13h-7.27v-2.21h7.68Zm-9.18-2.34v2.21h-12.86a.84.84,0,0,0-.38.11v-2.32Zm-13.24,7.14a.73.73,0,0,0,.38.11h12.86v2.21H1385.2Zm14.74,2.32V-1898h7.27a.74.74,0,0,0,.41-.13v2.34Z" transform="translate(-1379.45 1926.24)"/></svg>