<svg id="Layer_1" data-name="Layer 1" xmlns="http://www.w3.org/2000/svg" width="1.44cm" height="1.23cm" viewBox="0 0 40.91 35"><defs><style>.cls-1{fill:#1d3b54;}.cls-2{fill:#f4cc5b;}</style></defs><title>Online</title><path class="cls-1" d="M1353.68-1894h-32.25a2.23,2.23,0,0,1-2.22-2.23V-1917a2.23,2.23,0,0,1,2.22-2.23h32.25a2.23,2.23,0,0,1,2.23,2.23v20.68A2.23,2.23,0,0,1,1353.68-1894Zm-32.25-23.14a.23.23,0,0,0-.22.23v20.68a.23.23,0,0,0,.22.23h32.25a.24.24,0,0,0,.23-.23V-1917a.24.24,0,0,0-.23-.23Z" transform="translate(-1315 1929)"/><rect class="cls-1" x="9.41" y="20.88" width="5.4" height="3"/><rect class="cls-1" x="16.37" y="20.88" width="5.4" height="3"/><rect class="cls-1" x="23.34" y="20.88" width="5.4" height="3"/><rect class="cls-1" x="30.3" y="20.88" width="5.4" height="3"/><rect class="cls-2" x="9.41" y="26.34" width="6.9" height="2"/><rect class="cls-2" x="18.43" y="26.34" width="5.66" height="2"/><path class="cls-1" d="M1317-1894h-2v-30.57a4.44,4.44,0,0,1,4.43-4.43h17a4.43,4.43,0,0,1,4.43,4.43v3.23h-2v-3.23a2.43,2.43,0,0,0-2.43-2.43h-17a2.43,2.43,0,0,0-2.43,2.43Z" transform="translate(-1315 1929)"/><rect class="cls-1" x="11.52" y="4.56" width="6.31" height="2"/><path class="cls-1" d="M1323.36-1925a1.55,1.55,0,0,0-1.55,1.55,1.56,1.56,0,0,0,1.55,1.55,1.55,1.55,0,0,0,1.55-1.55A1.54,1.54,0,0,0,1323.36-1925Zm0,2.1a.55.55,0,0,1-.55-.55.55.55,0,0,1,.55-.55.54.54,0,0,1,.55.55A.55.55,0,0,1,1323.36-1922.89Z" transform="translate(-1315 1929)"/></svg>