<svg id="Layer_1" data-name="Layer 1" xmlns="http://www.w3.org/2000/svg" width="1.29cm" height="1.05cm" viewBox="0 0 36.49 29.76"><defs><style>.cls-1{fill:#1d3b54;}.cls-2{fill:#f4cc5b;}</style></defs><title>wallet</title><path class="cls-1" d="M1104.45-1914.17v-4.74a5.38,5.38,0,0,0-5.43-5.43h-23.9a5.38,5.38,0,0,0-5.43,5.43v18.9a5.38,5.38,0,0,0,5.43,5.43H1099a5.38,5.38,0,0,0,5.43-5.43v-4.53a3.78,3.78,0,0,0,1.74-3.08v-3.47a3.78,3.78,0,0,0-1.74-3.08Zm-.44,6.55a1.48,1.48,0,0,1-1.52,1.52h-11.07a1.48,1.48,0,0,1-1.52-1.52v-3.47a1.48,1.48,0,0,1,1.52-1.52h11.07a1.48,1.48,0,0,1,1.52,1.52Zm-5,10.86h-23.9a3.34,3.34,0,0,1-3.25-3.25v-18.9a3.34,3.34,0,0,1,3.25-3.26H1099a3.34,3.34,0,0,1,3.26,3.26v4.13h-10.86a3.8,3.8,0,0,0-3.7,3.69v3.47a3.81,3.81,0,0,0,3.7,3.7h10.86v3.91a3.34,3.34,0,0,1-3.26,3.25Zm0,0" transform="translate(-1069.69 1924.34)"/><path class="cls-2" d="M1091.63-1910.22a1.33,1.33,0,0,0-.21.87.82.82,0,0,0,.21.65,1.69,1.69,0,0,0,.87.43c.22,0,.44-.22.65-.43.22,0,.44-.44.44-.65a1.11,1.11,0,0,0-.44-.87,1,1,0,0,0-1.52,0Zm0,0" transform="translate(-1069.69 1924.34)"/></svg>