<svg id="Layer_1" data-name="Layer 1" xmlns="http://www.w3.org/2000/svg" width="1.48cm" height="1.03cm" viewBox="0 0 41.84 29.28"><defs><style>.cls-1{fill:#1d3b54;}</style></defs><title>world</title><path class="cls-1" d="M1291.6-1923.38h-37a2.39,2.39,0,0,0-2.39,2.39v24.5a2.39,2.39,0,0,0,2.39,2.39h37a2.39,2.39,0,0,0,2.4-2.39V-1921a2.39,2.39,0,0,0-2.4-2.39Zm-.06,26.82-36.92.07-.07-24.43,37-.07Zm0,0" transform="translate(-1252.16 1923.38)"/><path class="cls-1" d="M1274.84-1912.2l-2,4.26h-.2v-5.19h-2.79v8.78h2.37a1.62,1.62,0,0,0,1.45-.93l2-4.26h.2v5.19h2.79v-8.78h-2.37a1.61,1.61,0,0,0-1.45.93" transform="translate(-1252.16 1923.38)"/><path class="cls-1" d="M1264.37-1912l-1.16,4h-.2l-1.16-4a1.6,1.6,0,0,0-1.54-1.16h-2.78v8.78h2.79v-5.19h.2l1.59,5.19h2l1.59-5.19h.2v5.19h2.79v-8.78h-2.79a1.59,1.59,0,0,0-1.53,1.16" transform="translate(-1252.16 1923.38)"/><path class="cls-1" d="M1279.86-1909.14v4.79h2.78v-2.79h3a3,3,0,0,0,2.82-2Z" transform="translate(-1252.16 1923.38)"/><path class="cls-1" d="M1285.64-1913.13h-6.18a4.37,4.37,0,0,0,4.31,3.59h4.8a2.91,2.91,0,0,0,.06-.6,3,3,0,0,0-3-3" transform="translate(-1252.16 1923.38)"/></svg>