<svg xmlns="http://www.w3.org/2000/svg" viewBox="0 0 64 64"><defs><style>.cls-1{fill:#348bd5;}.cls-2{fill:#4c99da;}.cls-3{fill:#d4e5f5;}.cls-4{fill:#3c8fd6;}</style></defs><title>Ресурс 1</title><g id="Слой_2" data-name="Слой 2"><g id="Слой_1-2" data-name="Слой 1"><path class="cls-1" d="M58,64H6c-.83-1.72-.6-3.56-.6-5.37,0-7.27,0-14.55,0-21.83,0-1.61.3-3.34-1.48-4.42-2.64-1.6-2.72-4.2-2.85-6.94C.92,23,2.17,20.21,0,18V16c1.68-1,2-2.91,3-4.39C5.14,8.16,6.29,4.1,9.16,1.06H55.89c1.7,1,1.94,3,2.78,4.51C60.54,9,61.55,12.86,64,16v2c-2.13,2.43-.75,5.33-1,8-.2,2.18,0,4.52-2.1,5.77s-2.16,3.07-2.15,5.1q0,10.91,0,21.83C58.75,60.49,59.11,62.36,58,64ZM25.78,37.13c-.05,4.62-.36,9.25.2,13.86a49.88,49.88,0,0,0,.19,10.87c5.18,0,10.13.07,15.08,0s9.9.39,15.3-.38c0-9,.14-17.84-.08-26.62-.07-2.48-1.87-4-4.51-2.62a5.37,5.37,0,0,1-5.65,0,2.51,2.51,0,0,0-2.75-.16c-4,2-8.48-1.15-12.59.84-.3.15-1-.22-1.35-.51-1.22-.91-2.31-.25-3.6-.13a55.25,55.25,0,0,1-13.1.18c-4.17-.58-5.25-.31-5.3,4.1-.07,7.17,0,14.33,0,21.49,0,1.2-.37,2.63,1.25,3.63,1.48-1.42.92-3.16.93-4.69.07-5.83,0-11.66,0-17.49,0-1.55,0-3.28,2.16-3.18C16.6,36.53,21.28,35.3,25.78,37.13ZM61.05,15.79c-1.93-4.15-3.69-7.86-5.38-11.6-.74-1.63-2-2-3.63-2q-19.42,0-38.86,0c-1.57,0-2.94.2-3.74,1.82C7.56,7.86,5.09,11.41,3.59,15.79ZM22.91,61.64a6.88,6.88,0,0,0,.5-1.48q.06-6.24.07-12.47c0-10,0-10-10-9.21a4.26,4.26,0,0,0-1.3.57V61.68A59.68,59.68,0,0,0,22.91,61.64ZM9.85,18.58c-6.61-.73-6.61-.73-6.62,4.9,0,1.15,0,2.31,0,3.46.09,2.21.88,4,3.41,3.93,2.17-.08,3.12-1.65,3.16-3.69C9.89,24.41,9.85,21.64,9.85,18.58Zm10.37,5.36c.1,1.63-.25,3.32.41,4.88a3,3,0,0,0,5.18,1.09c1.1-1.15,1.58-9.77.64-11a2.37,2.37,0,0,0-1.73-.74C20.9,17.51,20.22,18.38,20.22,23.94Zm23.61,0h0c0-1,0-2,0-3,.13-2.1-.82-3-2.92-2.9-1.85.08-3.78-.14-3.72,2.62,0,2.31-.06,4.62.11,6.91.13,1.8,1.1,3.19,3.08,3.24,2.23.05,3.2-1.42,3.38-3.45C43.92,26.3,43.83,25.14,43.83,24Zm17-.1h.06c0-1,0-2,0-3,.13-2.18-1-2.87-3-2.81s-3.73,0-3.64,2.72c.08,2.3-.06,4.62.13,6.91a3.21,3.21,0,0,0,6.42.09A32.51,32.51,0,0,0,60.81,23.89ZM12,18.9c0,2.87-.11,6,0,9a2.86,2.86,0,0,0,3.26,2.93A2.77,2.77,0,0,0,18.06,28c0-3.2.8-6.49-.6-9.57C15.64,18.21,14,17.86,12,18.9Zm22.91-.51c-2.25-.15-3.88-.56-5.91.53,0,2.87-.12,6,.05,9a2.87,2.87,0,0,0,3.29,2.9,2.84,2.84,0,0,0,2.78-2.93A45.08,45.08,0,0,0,34.87,18.39Zm11,.32V26.8c0,2.22.7,4.07,3.24,4s3-2.07,3-4.2c0-1.16,0-2.31,0-3.46C52.15,17.9,52.15,17.9,45.91,18.71Z"/><path class="cls-2" d="M56,0l-.11,1.05H9.16L9,0Z"/><path class="cls-3" d="M25.78,37.13,26.92,37l.16,14L26,51C25.42,46.38,25.73,41.75,25.78,37.13Z"/><path class="cls-4" d="M27.08,51l-.16-14c2-1.4,4.19-.7,6.3-.74,5.82-.1,11.65,0,17.48-.06,2.47,0,3.5.74,3.67,3.39.75,11.63.83,11.65-10.82,11.61C38.06,51.16,32.57,51,27.08,51Zm24.84-2.14c.26-3.66.51-6.78-.2-10.11H29.25c-.41,3.56-.65,6.8.15,10.11Z"/></g></g></svg>