<svg xmlns="http://www.w3.org/2000/svg" viewBox="0 0 54.7 63.8"><defs><style>.cls-1{fill:#3089d5;}</style></defs><title>Ресурс 1</title><g id="Слой_2" data-name="Слой 2"><g id="Слой_1-2" data-name="Слой 1"><path class="cls-1" d="M12.9,12.4a6.23,6.23,0,0,0,6.2-6.2,6.2,6.2,0,0,0-12.4,0A6.1,6.1,0,0,0,12.9,12.4Zm0-10.5A4.2,4.2,0,1,1,8.7,6.1,4.1,4.1,0,0,1,12.9,1.9Z"/><path class="cls-1" d="M35.7,55.2c-1.4-5.3-6.3-12.5-7.5-14.2l1.9-6.9a1,1,0,0,0-1-1.3H25.6V17.9a3.69,3.69,0,0,0-3.7-3.7H3.7A3.69,3.69,0,0,0,0,17.9V34.3a3.37,3.37,0,0,0,3.4,3.4,3.19,3.19,0,0,0,1.4-.3V55.2a2.93,2.93,0,0,0,1.9,2.7,4.29,4.29,0,0,0,4,5.8c2.2,0,2.4-1.3,3.5-1a30.25,30.25,0,0,0,8.5,1.1,30.25,30.25,0,0,0,8.5-1.1,1.18,1.18,0,0,1,1,.1,4.29,4.29,0,0,0,6.3-1.4C40,59.1,38.7,55.5,35.7,55.2ZM26.4,40.1h-7l-1.5-5.3h9.9ZM3.5,35.7a1.37,1.37,0,0,1-1.4-1.4V17.9a1.69,1.69,0,0,1,1.7-1.7H22.1a1.69,1.69,0,0,1,1.7,1.7V32.8H20.9V19.5a1,1,0,0,0-2,0V32.8H16.7a1,1,0,0,0-1,1.3L17.6,41c-.4.5-1,1.5-1.8,2.7V39.8a3,3,0,0,0-2.9-3.1A3,3,0,0,0,10,39.8V55.3a3.46,3.46,0,0,0-2.1,1H7.8a.9.9,0,0,1-.9-.9V34.3h0V19.5a.94.94,0,0,0-1-1,.94.94,0,0,0-1,1V34.3h0A1.37,1.37,0,0,1,3.5,35.7ZM13.7,46.9l-1.8,3.3V39.7a1,1,0,0,1,.9-1.1,1,1,0,0,1,.9,1.1ZM36.9,60.6a2.36,2.36,0,0,1-3.4.8,3.07,3.07,0,0,0-2.8-.4,26.18,26.18,0,0,1-7.9,1c-7.9,0-8.5-2.2-10.7-.6a2.2,2.2,0,0,1-1.3.4A2.39,2.39,0,0,1,9,57.9a1.72,1.72,0,0,1,1.7-.7,1,1,0,0,0,1.1-.8c1-4.9,6-12.4,7.3-14.2h.8v4.2a1,1,0,0,0,2,0V42.2h1.8v2.9a1,1,0,0,0,2,0V42.2h.8c1.3,1.8,6.3,9.3,7.3,14.2a1,1,0,0,0,1.1.8A2.21,2.21,0,0,1,36.9,60.6Z"/><path class="cls-1" d="M23.5,53.5h0V50.7a4,4,0,0,1,2.1.9l1-1.4a6.13,6.13,0,0,0-3.1-1.1v-.8h-.9V49a3,3,0,0,0-2.3.9,2.58,2.58,0,0,0-.9,2.1,2.27,2.27,0,0,0,.8,1.9,5.4,5.4,0,0,0,2.4,1v3A5.32,5.32,0,0,1,20,56.6l-1.1,1.3a6.52,6.52,0,0,0,3.6,1.6v1.1h.9V59.5a3.24,3.24,0,0,0,2.4-.9,2.58,2.58,0,0,0,.9-2.1,2.63,2.63,0,0,0-.8-2A4.51,4.51,0,0,0,23.5,53.5Zm-.9-.3a2.65,2.65,0,0,1-1.1-.6,1.14,1.14,0,0,1-.3-.8.91.91,0,0,1,.4-.8,1.78,1.78,0,0,1,1-.4Zm2,4.3a1.25,1.25,0,0,1-1.1.4V55.2a3.26,3.26,0,0,1,1.2.6,1.14,1.14,0,0,1,.3.8A1,1,0,0,1,24.6,57.5Z"/><path class="cls-1" d="M44.2,32.9h0V30.1a4,4,0,0,1,2.1.9l1-1.4a6.13,6.13,0,0,0-3.1-1.1v-.8h-.9v.7a3,3,0,0,0-2.3.9,2.58,2.58,0,0,0-.9,2.1,2.27,2.27,0,0,0,.8,1.9,5.4,5.4,0,0,0,2.4,1v2.9a5.32,5.32,0,0,1-2.6-1.3l-1.1,1.3a6.52,6.52,0,0,0,3.6,1.6v1.1h.9V38.8a3.24,3.24,0,0,0,2.4-.9,2.58,2.58,0,0,0,.9-2.1,2.63,2.63,0,0,0-.8-2A7.48,7.48,0,0,0,44.2,32.9Zm-.9-.2a2.65,2.65,0,0,1-1.1-.6,1.14,1.14,0,0,1-.3-.8.91.91,0,0,1,.4-.8,1.78,1.78,0,0,1,1-.4Zm2,4.3a2.1,2.1,0,0,1-1.1.4V34.7a3.26,3.26,0,0,1,1.2.6,1.14,1.14,0,0,1,.3.8A1.09,1.09,0,0,1,45.3,37Z"/><path class="cls-1" d="M43.6,22.9a11,11,0,1,0,11,11A11,11,0,0,0,43.6,22.9Zm0,20a9,9,0,1,1,9-9A9,9,0,0,1,43.6,42.9Z"/><path class="cls-1" d="M44.1,12.8l-.8,1A4.74,4.74,0,0,0,46,15v.8h.7V15a2.48,2.48,0,0,0,1.8-.7,1.86,1.86,0,0,0,.7-1.6,2,2,0,0,0-.6-1.5,4.89,4.89,0,0,0-1.9-.8h0v-2a4.42,4.42,0,0,1,1.6.6L49,8a4,4,0,0,0-2.3-.8V6.6H46v.6a2.41,2.41,0,0,0-1.7.7,2.18,2.18,0,0,0-.7,1.6,1.68,1.68,0,0,0,.6,1.4,5.07,5.07,0,0,0,1.8.8v2.2A4.12,4.12,0,0,1,44.1,12.8Zm2.6-1a3.92,3.92,0,0,1,.9.4.73.73,0,0,1,.2.6.6.6,0,0,1-.3.6,1.14,1.14,0,0,1-.8.3ZM45.1,9.9a.85.85,0,0,1-.2-.6.71.71,0,0,1,.3-.6,1,1,0,0,1,.8-.3v1.9C45.6,10.1,45.3,10,45.1,9.9Z"/><path class="cls-1" d="M46.2,19.7a8.5,8.5,0,1,0-8.5-8.5A8.49,8.49,0,0,0,46.2,19.7Zm0-15a6.5,6.5,0,1,1-6.5,6.5A6.49,6.49,0,0,1,46.2,4.7Z"/></g></g></svg>