<svg xmlns="http://www.w3.org/2000/svg" viewBox="0 0 60.02 64"><defs><style>.cls-1{fill:#4c99da;}.cls-2{fill:#4796d9;}.cls-3{fill:#338ad5;}.cls-4{fill:#eff5fb;}.cls-5{fill:#f9fbfd;}.cls-6{fill:#e8f2fa;}.cls-7{fill:#4494d8;}.cls-8{fill:#3c8fd7;}.cls-9{fill:#3088d4;}.cls-10{fill:#3089d4;}.cls-11{fill:#3d90d7;}.cls-12{fill:#ecf4fa;}.cls-13{fill:#f6fafd;}.cls-14{fill:#8cbde7;}</style></defs><title>Ресурс 1</title><g id="Слой_2" data-name="Слой 2"><g id="Слой_1-2" data-name="Слой 1"><path class="cls-1" d="M47,0l.16,1L6.26,1C1,1,1,1,1,6.12Q1,34.56,1,63v1H0V0Z"/><path class="cls-2" d="M1,64V63H54.87L55,64Z"/><path class="cls-3" d="M54.87,63H1Q1,34.55,1,6.12C1,1,1,1,6.26,1l40.9,0c1.1,9.09.45,18.21.37,27.3,0,4.19,1,7,4.95,8.54a34.93,34.93,0,0,1,4.75,2.68c3.62,2.14,3.83,5.76,0,6.83-2.64.73-2.06,1.85-2.1,3.26C55,54,54.93,58.51,54.87,63ZM47,40.89l1.28-1.07,7.07,3.66c.63.32,1.23.49,1.76-.16.91-1.1-.16-1.44-.78-1.8-3.88-2.26-7.79-4.47-11.67-6.72a2.51,2.51,0,0,0-2.79-.17c-4,2.36-8.06,4.66-12.08,7-.6.35-1,.92-.62,1.61s1.1.56,1.74.22l8.81-4.61L41,40l-4.19,2.91c-2.18.51-3.39,1.55-3.24,4.13a118.87,118.87,0,0,1,0,11.94c-.09,2.15.55,3,2.75,3,4.47-.1,9-.12,13.43,0,2.31.06,3.29-.68,3.19-3.11q-.22-6,0-11.94c.08-2.29-1-3.32-3-3.83ZM7,49c7.15,0,14.3,0,21.44,0,.88,0,2.33.36,2.32-1s-1.44-1-2.32-1c-7.15,0-14.29,0-21.44,0-.39-2.58,1.54-2,2.9-2.07,4.66,0,9.33,0,14,0,.94,0,2.5.35,2.61-.66.19-1.72-1.54-1.33-2.58-1.35-4.66-.06-9.33,0-14,0-1,0-2.73.48-2.65-1.23,0-1.11,1.57-.84,2.5-.85,4.83,0,9.66,0,14.5,0,1.94,0,3.87,0,5.48-2.44-7,0-13.47,0-19.91,0-.94,0-2.48.26-2.56-.78-.13-1.76,1.61-1.25,2.62-1.26,7.33,0,14.66,0,22,0,1.66,0,3.64.48,4.71-2-8.43,0-16.59.06-24.74-.06-1.6,0-4.55.92-4.5-1.12.05-1.82,3.07-.64,4.74-.93a14.87,14.87,0,0,1,2.5,0c8.83,0,17.66,0,26.49.1,2.91,0,4.34-.77,4.2-4.21-.31-7.32-.19-14.66,0-22,.06-2.75-.72-3.81-3.64-3.77-12,.13-24,.1-36,0C3.1,2.13,2.12,3,2.13,5.6q.14,26.49,0,53c0,2.73,1,3.38,3.53,3.34,7.33-.11,14.66-.16,22,0,3,.08,3.88-1.1,3.55-3.8a12.5,12.5,0,0,1,0-1.5c0-5.49,0-5.49-5.28-5.5s-10.66,0-16,0C8.54,51.1,6.62,51.61,7,49Z"/><path class="cls-4" d="M39.76,38.86,31,43.47c-.64.34-1.31.47-1.74-.22s0-1.26.62-1.61c4-2.35,8.07-4.65,12.08-7a2.51,2.51,0,0,1,2.79.17c3.88,2.25,7.79,4.46,11.67,6.72.62.36,1.69.7.78,1.8-.53.65-1.13.48-1.76.16l-7.07-3.66C45.67,37.67,43,35.41,39.76,38.86Z"/><path class="cls-5" d="M7,49V47c7.15,0,14.29,0,21.44,0,.88,0,2.32-.36,2.32,1s-1.44,1-2.32,1C21.31,49.07,14.16,49,7,49Z"/><path class="cls-6" d="M49.94,43l-1.15,1.31C45.22,43.46,41.6,44,38,44l-1.2-1.11L41,40c2.32-1.67,4.06.49,6.06.92Z"/><path class="cls-7" d="M47,40.89C45,40.46,43.3,38.3,41,40l-1.22-1.11c3.28-3.45,5.91-1.19,8.56,1Z"/><path class="cls-8" d="M8.35,19.57c.82.23,1.53,2.53,2.44.31.53-1.29,0-2.5-1.58-3.14C7.05,15.84,6.49,14,6.87,11.8c.49-2.8,3.76-2.89,5-5.09.25-.46,5.33,4.33,5.14,5.18s-.62,1-1.43.69-1.21-2.14-2.21-.76A2.45,2.45,0,0,0,13.81,15c4.44,4.74,4.41,4.76-.46,9.1-.61.54-1.17,2.55-1.85,1.2C10.39,23.1,7,23.24,7,20.38,7,19.56,7.57,19.29,8.35,19.57Zm2.55-6.78c-.1-.52.14-1.38-.78-1.43S9,12,9,12.71c-.05.89.29,1.81,1.28,1.76C11,14.43,10.86,13.49,10.9,12.79ZM15,18.94a1.38,1.38,0,0,0-1.31-1.32c-.78,0-.73.89-.68,1.47s-.31,1.81,1,1.69C14.73,20.71,15,20.05,15,18.94Z"/><path class="cls-9" d="M23.55,29.91c-4.83,0-9.66,0-14.49,0-.75,0-1.89.15-1.86-1s1.15-.95,1.89-.95q15,0,30,0c.65,0,1.52.05,1.63.74.17,1.15-.86,1.24-1.66,1.25C33.88,29.92,28.71,29.91,23.55,29.91Z"/><path class="cls-3" d="M30.3,8.75c-3,0-5.95,0-8.92,0-.85,0-1.73-.31-1.61-1.35.08-.71.85-1,1.54-1,5.94,0,11.89,0,17.83,0,.82,0,1.78.26,1.59,1.35s-1.22.94-2,.94c-2.8,0-5.61,0-8.42,0Z"/><path class="cls-3" d="M30.48,25.82H21.53c-.92,0-1.84-.33-1.82-1.25s1-1.2,1.89-1.19c5.8,0,11.6,0,17.4.06.83,0,1.81.22,1.79,1.25s-1,1.11-1.86,1.12C36.12,25.84,33.3,25.82,30.48,25.82Z"/><path class="cls-3" d="M30.34,21.26c-3,0-6,0-9,0-.62,0-1.42,0-1.48-.88s.65-1.12,1.33-1.12q9,0,18,0c.63,0,1.46.1,1.47,1,0,1.22-1.08,1-1.82,1C36,21.29,33.17,21.26,30.34,21.26Z"/><path class="cls-9" d="M30.07,12.88c-2.84,0-5.67,0-8.5,0-.62,0-1.41-.07-1.43-1s.81-.94,1.4-1q9,0,18,0c.65,0,1.4.25,1.13,1.13a1.43,1.43,0,0,1-1.11.73c-3.16.05-6.33,0-9.49,0Z"/><path class="cls-10" d="M30.06,17.05c-2.81,0-5.62,0-8.43,0C21,17,20.24,17,20.1,16.2s.61-1.11,1.24-1.11q9.18,0,18.36,0a1.36,1.36,0,0,1,1,.81c.2.89-.57,1.08-1.21,1.08-3.14,0-6.28,0-9.43,0Z"/><path class="cls-9" d="M17,53.27c3.15,0,6.31,0,9.45,0,.7,0,1.35.38,1.19,1.18a1.4,1.4,0,0,1-1.09.72q-9.21.06-18.4,0a1.31,1.31,0,0,1-.93-.84c-.09-.88.68-1,1.33-1,2.82,0,5.64,0,8.45,0Z"/><path class="cls-11" d="M38,44c3.61,0,7.23-.53,10.8.36,0,1.5-.06,3-.06,4.49,0,5.41,0,5.41-5.4,5.42s-5.46,0-5.46-5.29C37.87,47.31,38,45.65,38,44Zm8,8h0c1.21-.73,1.2-1.32-.2-1.75a1.75,1.75,0,0,0-.6,0q-1,0-1,1l.79.93C45.38,52.74,45.72,52.69,46,52Zm-5.08-5.84c-.44.16-.87.35-.71.93s.36.87.93.72.87-.37.73-.94S41.46,46,40.89,46.12Zm5.15.62a.88.88,0,0,0-1.13-.56.74.74,0,0,0-.41,1.13,1,1,0,0,0,.79.41A.79.79,0,0,0,46,46.74Zm-5.87,4.62a.91.91,0,0,0,1.15.56.75.75,0,0,0,.38-1.16,1,1,0,0,0-.77-.4A.84.84,0,0,0,40.17,51.36Z"/><path class="cls-12" d="M15,18.94c0,1.11-.28,1.77-1,1.84-1.31.12-.93-1-1-1.69s-.1-1.48.68-1.47A1.38,1.38,0,0,1,15,18.94Z"/><path class="cls-13" d="M46,46.74a.79.79,0,0,1-.75,1,1,1,0,0,1-.79-.41.74.74,0,0,1,.41-1.13A.88.88,0,0,1,46,46.74Z"/><path class="cls-14" d="M46,52l-.2-1.75C47.16,50.65,47.17,51.24,46,52Z"/><path class="cls-14" d="M45.16,50.17l-1,1Q44.14,50.13,45.16,50.17Z"/><path class="cls-14" d="M45,52.09,46,52C45.72,52.69,45.38,52.74,45,52.09Z"/></g></g></svg>