<svg xmlns="http://www.w3.org/2000/svg" viewBox="0 0 55 64"><defs><style>.cls-1{fill:#3c8fd6;}.cls-2{fill:#4091d7;}.cls-3{fill:#338ad5;}.cls-4{fill:#3088d4;}.cls-5{fill:#f5f9fc;}.cls-6{fill:#7ab3e3;}.cls-7{fill:#3d90d7;}.cls-8{fill:#519bdb;}.cls-9{fill:#f1f7fb;}</style></defs><title>Ресурс 1</title><g id="Слой_2" data-name="Слой 2"><g id="Слой_1-2" data-name="Слой 1"><path class="cls-1" d="M54,62.16c1.2.13.84,1.14,1,1.84H0c.24-.68-.11-1.69,1.06-1.83.9,1,2.11.83,3.26.83H50.7C51.85,63,53.05,63.17,54,62.16Z"/><path class="cls-2" d="M16.91,10.19C15.21,6.92,16.56,3.38,16,0H40c.1.29.19.58.27.88H16.91Z"/><path class="cls-3" d="M16.91,10.19V.88H40.27c5.15,3.81,4.87,8.21-.9,10.77a7.61,7.61,0,0,0-4,4.15H47.12c1.35,2.3.11,5.76,4.33,6-3.53.77-3.52,2.91-3.5,5.33.1,9.11,0,18.23,0,27.1,2.39,1.39,4.79,0,6.7,1.42C52.08,57.42,6.78,58,.07,56.33c1.82-2.39,4.51-.61,7-2,0-9.59-.05-19.52,0-29.46,0-2.15-2.06-1.69-3.56-3.08C6.64,21,8,19.23,7,16.18H19.31C19.33,13.59,16.76,12.41,16.91,10.19ZM39,3c-1.65,1.8-.95,4-.74,6,.12,1.08,1.08.86,1.76.18C41.92,6.72,43,4.44,39,3ZM9.33,54.51c2.72,1,3.47-.06,3.43-2.21s0-4.34,0-6.5c-.07-3.16.65-5.93,4.45-5.82s4.45,2.84,4.52,6c.07,2.92-.41,5.9.33,8.65H45.71V32.24a332,332,0,0,0-36.38.15Zm.23-31.37c-.63,2.84-.74,5.2,1.65,6.64,3.36,2,4.73-1.72,6.87-2.91,3.86,4.58,4.94,4.57,9.46.13,4.52,4.41,5.2,4.41,9.92-.12,1.65,2,3.34,4.62,6.41,2.9,2.66-1.48,2.17-4,1.69-6.64Zm27-20.66H18.4c-.54,5-.12,9.33,4.29,12.15a8.49,8.49,0,0,0,9.44.12C36.57,12,37.26,7.74,36.57,2.48Zm-21.71,52c3,.89,4.51.55,4.36-2.41-.1-2.13,0-4.28,0-6.42-.05-1.6.24-3.66-2.25-3.54-2,.1-2.07,1.79-2.08,3.33ZM8.57,19.68c3.26,1.54,5.76,1.9,8.91-.36C14.2,17.79,11.71,17.41,8.57,19.68Zm37.93-.15c-3.19-2-5.68-1.89-8.87-.07C40.79,21.43,43.29,21.36,46.5,19.53Zm-27.32-.11a6.19,6.19,0,0,0,7.71.16C24.07,17.43,21.64,18,19.18,19.42Zm9.82,0c2.43,1.74,4.76,2,8.11-.43C33.48,18,31.21,17.76,29,19.41Z"/><path class="cls-4" d="M54,62.16c-.9,1-2.1.84-3.25.84H4.32c-1.15,0-2.36.18-3.26-.83C18.69,61.72,36.32,61.76,54,62.16Z"/><path class="cls-5" d="M39,3c4,1.44,2.91,3.72,1,6.14C38.09,7.36,39.51,5,39,3Z"/><path class="cls-6" d="M39,3c.5,2-.92,4.36,1,6.14-.68.68-1.64.9-1.76-.18C38.06,7,37.36,4.8,39,3Z"/><path class="cls-7" d="M42.85,36.13V51.58H24.57c-.92-5.16-.4-10.08-.34-15.45ZM26.31,38.07c0,4.16-.66,7.75.49,11.47a76.72,76.72,0,0,0,14-.1V38.07Z"/><path class="cls-8" d="M21.65,4.61c1.52,3.78,2.61,6.8,7,7.58-3.32,2.38-4.84.72-6.07-.54C21,10,20.12,8,21.65,4.61Z"/><path class="cls-9" d="M26.31,38.07H40.78V49.44a76.72,76.72,0,0,1-14,.1C25.65,45.82,26.31,42.23,26.31,38.07Zm10.9,3.16c-2.41-1.27-4.77-1.75-7,.36C32.58,42,34.91,42.56,37.21,41.23Zm0,4.62c-2.38-.44-4.83-1.76-7.86,1C32.6,46.93,35,47.6,37.21,45.85Z"/><path class="cls-4" d="M37.21,41.23c-2.3,1.33-4.63.78-7,.36C32.44,39.48,34.8,40,37.21,41.23Z"/><path class="cls-4" d="M37.21,45.85c-2.26,1.75-4.61,1.08-7.86,1C32.38,44.09,34.83,45.41,37.21,45.85Z"/></g></g></svg>