<svg xmlns="http://www.w3.org/2000/svg" viewBox="0 0 64.21 64.08"><defs><style>.cls-1{fill:#4092d7;}.cls-2{fill:#4f9ada;}.cls-3{fill:#60a4de;}.cls-4{fill:#4594d8;}.cls-5{fill:#569fdc;}.cls-6{fill:#9ac5ea;}.cls-7{fill:#c7dff3;}.cls-8{fill:#cfe3f4;}.cls-9{fill:#4795d9;}.cls-10{fill:#4896d9;}.cls-11{fill:#bed9f1;}.cls-12{fill:#bad7f0;}.cls-13{fill:#c8dff3;}.cls-14{fill:#b7d5f0;}.cls-15{fill:#589fdc;}.cls-16{fill:#4a98da;}.cls-17{fill:#3c8fd7;}.cls-18{fill:#cee3f4;}.cls-19{fill:#61a4de;}</style></defs><title>Ресурс 1</title><g id="Слой_2" data-name="Слой 2"><g id="Слой_1-2" data-name="Слой 1"><path class="cls-1" d="M63,64.07c-1.54-6.56-.51-13.2-.61-19.8,0-3.19-.85-4.39-4.18-4.23-5.3.26-10.68.6-15.91-.06-6.8-.86-12.75,1.77-19,3.27-1.31.31-1.41,1.19-1.4,2.21A1.43,1.43,0,0,0,23.39,47c.67,0,1.33.08,2,.06,2.6-.06,5.52,0,5.48,3.41s-3.14,3.13-5.62,3.27c-1.38.08-3.23-.48-3.38,1.84-.12,2-.37,3.92,2.11,5,1.61.69,4.21.57,4,3.46H27c-4-3.08-8-4-12,0H13c.45-3,3.4-2.76,5.28-3.77s1.61-2.63,1.67-4.24c.05-1.34-.39-2.09-1.9-2.28-2.83-.37-7.35,1.3-7.25-3.52.1-4.35,4.35-2.85,7.09-3.17,1-.12,2-.19,2-1.57,0-1,.06-2.25-1.31-2.21-5.41.17-9.71-5-15.45-3.16l-2-1.08c-.16-1.62-.52-3.33.62-4.71,4-4.79.94-8.51-1.79-12.29v-1C4.84,15.26,10.67,10.2,13.57,3,14,1.83,14.7.52,15.92,1.77,18.51,4.43,22.4,5.49,24.29,9c1.18,2.2,1.18,3.72-1.44,4.64a21.08,21.08,0,0,0-2.22,1.13c-5.22,2.62-5.44,2.67-7.06-2.94-.78-2.71-1.25-3-2.91-.69C9.4,12.88,8,14.5,6.62,16.2,2.53,21.37,3.27,28.38,8.27,33c1.26,1.17,2,2.63,2.24-.55.36-4.46,3.21-6.3,7.5-6.22,1.34,0,2.67,0,4,0,7.21,0,8.81,1.55,9.08,8.64,0,.78,0,1.55,0,2.32a1.39,1.39,0,0,0,1.48,1l27.57,0c.84,0,1.63-.16,1.86-1.18.41-.83,1.18-.94,2-1,0,8.66,0,17.33,0,26C63.94,62.7,65,64.22,63,64.07ZM3,38.31C4.84,39.71,7,39,9,39c1.33,0,2.28-.54,1.13-2.06L7.78,34.8c-1.55-2.1-3.08-2.15-4.6,0-.07.69-.14,1.37-.2,2.06C2,37.36,2.14,37.83,3,38.31ZM20.77,28.1h-1c-6.64,0-7.63.88-7.66,6.73s1.19,6.89,7.59,6.93q1.25,0,2.49,0c6.17-.09,7.25-1.21,7.12-7.36C29.19,28.75,28.32,28.1,20.77,28.1ZM19.9,52c2.06,0,3.71.07,5.35,0,1.37-.07,3.5.6,3.63-1.43.15-2.33-2.1-1.42-3.38-1.54a21.84,21.84,0,0,0-5.42,0c-2.58.44-7.44-1.34-7.29,1.27C13,53.78,17.71,51.2,19.9,52Zm3.24-41.31c-.88-2-1.71-3.87-4.21-3.76-2.3.1-3.8,1.23-3.85,3.61,0,1.64.25,3.84,2.39,3.5S21.89,12.89,23.14,10.72Z"/><path class="cls-2" d="M64,18.07C53.71,18,43.42,17.85,33.13,18c-3.47.05-4.79-1-4.52-4.52C28.94,9,28.89,4.54,29,.07,39.83.07,50.67.14,61.5,0c2.15,0,2.65.41,2.57,2.57C63.86,7.73,64,12.9,64,18.07ZM40,2.16a22.75,22.75,0,0,0-2.4-.6c-6.21-.9-7.57.25-7.57,6.34,0,8.36,0,8.36,10,7.92l3.84,0H50.1l2.82,0,7.17,0c.47,0,1.3,0,1.37-.18,1.56-4.21.83-8.56.46-12.83-.12-1.27-1.68-1.2-2.5.09L53.7,3c-1.26-1.61-2.48-1.65-3.66.08l-5.49-.13C43.31,1.08,41.6,2.06,40,2.16Z"/><path class="cls-3" d="M64,36.07c-.81,0-1.58.15-2,1l-30.91.16c0-.77,0-1.54,0-2.32,2.71-.1,5.83,1.4,7.7-2,2.53-3.39.51-7.28,1.19-10.88h0l16.93.08c.07,2,.18,4,.19,5.94,0,6.86.11,6.94,6.9,7ZM47.61,32.94h5a2.25,2.25,0,0,0,2.57-1.76c1.6-5.4-.24-8-5.83-8a19.87,19.87,0,0,1-3,0c-4-.61-5.19.78-5.41,5.05C40.63,34.24,44.31,32.93,47.61,32.94Zm1,2.12c1.82,0,3.64,0,5.46,0A10.58,10.58,0,0,0,56,34.66a7.27,7.27,0,0,0-1.71-.47c-3.8,0-7.61,0-11.41,0a9.81,9.81,0,0,0-1.9.37,6.85,6.85,0,0,0,1.71.48C44.67,35.1,46.65,35.07,48.64,35.06Z"/><path class="cls-4" d="M41,64.07c.66-2,2.51-2.56,4.2-3.18,2.15-.78,3-2.09,3-4.47.13-3.94-.08-7-5.38-6.12-1.94.32-3.77-.47-3.86-2.86C38.9,44.87,40.54,44,42.88,44c4.16,0,8.33,0,12.49,0,2.07,0,3.71.74,3.79,3,.1,2.65-1.77,3.08-4,3.38-1.8.25-5-1.57-5.06,2-.1,3.16-1.75,7.23,3.35,8.61,1.48.4,3.36.81,3.53,3H55c-4-3.71-8-3.44-12,0Zm9.21-18.16c-2.89,0-5.21,0-7.53,0-.87,0-1.7.34-1.69,1.37a1.5,1.5,0,0,0,1.61,1.52,37.43,37.43,0,0,0,6.94,0c2.66-.42,7.29,1.85,7.49-1.74C57.17,44.63,52.21,46.56,50.21,45.91Z"/><path class="cls-5" d="M1,64.07q.09-12.51.17-25l2,1.08L3,64.07Z"/><path class="cls-6" d="M56.91,22.13,40,22.05A31.21,31.21,0,0,1,56.91,22.13Z"/><path class="cls-6" d="M40,22.05c-.68,3.6,1.34,7.49-1.19,10.88C39.81,29.37,37.92,25.49,40,22.05Z"/><path class="cls-5" d="M3,36.89c.06-.69.13-1.37.2-2.06a7.11,7.11,0,0,0,4.6,0L10.15,37l-.16.11Z"/><path class="cls-5" d="M10.15,37C11.3,38.48,10.35,39,9,39c-2-.05-4.18.69-6-.71,2.29-.72,5,1,7-1.24Z"/><path class="cls-7" d="M7.78,34.8a7.11,7.11,0,0,1-4.6,0C4.7,32.65,6.23,32.7,7.78,34.8Z"/><path class="cls-8" d="M40.05,15.22c0,.2,0,.4,0,.6-10,.44-10,.44-10-7.92,0-6.09,1.36-7.24,7.57-6.34a20.59,20.59,0,0,1,2.4.61,3.08,3.08,0,0,1,0,.68l-5.49,0A2.3,2.3,0,0,0,31.9,5C30.28,13.34,31.72,15.21,40.05,15.22Z"/><path class="cls-9" d="M59.42,2.94c1,1.68,1.43,3.81-.3,4.75a6.24,6.24,0,0,1-5.21,0C52.24,6.75,52.6,4.63,53.7,3ZM58,5.06c-.16-.79-.8-.88-1.42-.88-.86,0-1.67.32-1.34,1.34.12.36,1,.6,1.58.65A1,1,0,0,0,58,5.06Z"/><path class="cls-10" d="M50,3.06c1.44,1.54,1.5,3.51,0,4.56a5.1,5.1,0,0,1-5.53,0c-1.42-1.06-1.23-3.12.06-4.69ZM48.8,5.29c.07-.91-.6-1.06-1.26-1.12S45.69,4,45.4,4.89C45,6,46,6.24,46.84,6.26S48.51,6.36,48.8,5.29Z"/><path class="cls-11" d="M52.92,15.89c0-.31.11-.62.16-.93L60,15c0,.28.09.57.13.85Z"/><path class="cls-12" d="M43.91,15.87c0-.27.06-.54.1-.81l6,.11c0,.23,0,.46.05.69Z"/><path class="cls-13" d="M47.61,32.94c-3.3,0-7,1.3-6.68-4.74.22-4.27,1.4-5.66,5.41-5.05a19.87,19.87,0,0,0,3,0c5.59,0,7.43,2.61,5.83,8a2.25,2.25,0,0,1-2.57,1.76ZM49,25.18c-1.21-.92-2.91,1.39-3.67-.6-1.2.79-2.47,1.53-2.86,3.08,1.23.21.72,2.54,1.85,2.08C46.24,28.94,47.53,27.12,49,25.18Z"/><path class="cls-14" d="M48.64,35.07c-2,0-4,0-6,0A6.85,6.85,0,0,1,41,34.56a9.81,9.81,0,0,1,1.9-.37c3.8,0,7.61,0,11.41,0a7.27,7.27,0,0,1,1.71.47,10.58,10.58,0,0,1-1.89.39C52.28,35.1,50.46,35.06,48.64,35.07Z"/><path class="cls-15" d="M40.05,15.22c-8.33,0-9.77-1.88-8.15-10.21a2.3,2.3,0,0,1,2.67-2.2l5.49,0A22.9,22.9,0,0,1,40.05,15.22Zm-1.17-6c-.66-1.76,1.61-5.2-3-5.15-3.75,0-2.63,2.73-2.61,4.6,0,2.05-1.18,4.95,2.73,5.15C39.76,14,38.75,11.39,38.88,9.22Z"/><path class="cls-16" d="M60,15l-6.88,0c-.29-2.82-.81-5.4,3.73-5.28S59.94,12.65,60,15Zm-1.6-2.69c-.32-.93-1.08-1.08-1.91-1.05s-1.59.41-1.44,1.41,1,1.14,1.83,1.06S58.36,13.33,58.36,12.32Z"/><path class="cls-17" d="M50.05,15.17l-6-.11c.1-1.89-1.67-4.43,1.73-5.2C50.21,8.86,51.45,10.4,50.05,15.17Zm-2.34-1.29A1.25,1.25,0,0,0,49,12.52c0-1.34-1.14-1.38-2.15-1.35s-1.73.37-1.7,1.34C45.16,13.82,46.25,13.9,47.71,13.88Z"/><path class="cls-2" d="M49,25.18c-1.43,1.94-2.72,3.76-4.68,4.56-1.13.46-.62-1.87-1.85-2.08.39-1.55,1.66-2.29,2.86-3.08C46.05,26.57,47.75,24.26,49,25.18Z"/><path class="cls-18" d="M47.71,13.88c-1.46,0-2.55-.06-2.6-1.37,0-1,.79-1.32,1.7-1.34s2.12,0,2.15,1.35A1.25,1.25,0,0,1,47.71,13.88Z"/><path class="cls-19" d="M36,7.86c.92.19,1.7.12,1.73,1s-.7,1-1.34,1c-.86,0-1.72-.23-1.65-1.24C34.73,8.27,35.66,8,36,7.86Z"/></g></g></svg>