<svg xmlns="http://www.w3.org/2000/svg" viewBox="0 0 62.94 64"><defs><style>.cls-1{fill:#4695d9;}.cls-2{fill:#5aa0dd;}.cls-3{fill:#76b1e3;}.cls-4{fill:#539cdb;}.cls-5{fill:#3c90d7;}.cls-6{fill:#549ddc;}.cls-7{fill:#378dd6;}.cls-8{fill:#529cdb;}.cls-9{fill:#4b98da;}.cls-10{fill:#3b8fd6;}.cls-11{fill:#67a8df;}</style></defs><title>Ресурс 1</title><g id="Слой_2" data-name="Слой 2"><g id="Слой_1-2" data-name="Слой 1"><path class="cls-1" d="M9,64c4.49-5.72,4.26-12.9,5.93-19.48,1.29-5.1,1.64-10.43,3.54-15.82,6,2.77,11.39,6.26,17.38,9.71-3.85,4.67-8.69,7.84-12.8,11.76-1.2,1.14-2.49,2.19-3.79,3.21C15.72,56.17,12.48,59.14,12,64ZM32.55,39.84C23.93,37.28,19.27,37.61,17.09,41,22.52,40.68,27.61,41.84,32.55,39.84Zm-5.13,3.72c-3.62-.11-7.39-1.46-10.67.78C20.39,44.6,24.19,46.92,27.42,43.56Zm1.37-7c-4.42-3.29-6.93-3.5-11.17-.78ZM15.18,49.28c3.3.86,5.7,1.55,8.08-1.62C20.25,47.34,17.85,46.08,15.18,49.28Z"/><path class="cls-2" d="M48,0c2.09,1.43,2.49,3.08,1.24,5.43A55.21,55.21,0,0,1,45,12.1c-1.7,2.36-3.64,2.43-6.48.59A52.69,52.69,0,0,0,46,0Zm.12,2.77L47,2.15l-5.48,9.59A12.32,12.32,0,0,0,48.12,2.77Z"/><path class="cls-3" d="M8,21c-2.71-1.94-4-5.77-8-6V13a4,4,0,0,1,5.07.18c2.26,2,5.06,3.62,6.24,6.68C10.15,20.11,8.76,19.66,8,21Z"/><path class="cls-4" d="M21.58,18.9c-2.16-4.13-4.21-8.27-7.65-11.22a6.42,6.42,0,0,1,3.52-3.63c3.3,2.35,4.92,5.94,6.62,9.51C25.38,16.31,24.48,17.89,21.58,18.9ZM16.5,6.68a69.13,69.13,0,0,0,6.06,9.52C21.89,12.16,20.69,8.47,16.5,6.68Z"/><path class="cls-5" d="M43.9,23.77c-1.17-1.45-.88-2.76-.74-4.08,1.25-1.1,2.72-.82,4.17-.68a3.44,3.44,0,0,1,.58,3.69C47,24.77,45.19,23.67,43.9,23.77Z"/><path class="cls-6" d="M54.08,27c1.63-3.88,4.63-4.53,8.86-1.54-3,1.28-5.83,2.08-8.92,1.47Z"/><path class="cls-7" d="M32.24,6.43C32,8.17,31.17,9.09,29.62,9A2.39,2.39,0,0,1,27.1,6.57,2.45,2.45,0,0,1,30,4C31.58,4.09,32.08,5.26,32.24,6.43Z"/><path class="cls-8" d="M23.9,25.61C23.53,27,22.75,28,21.2,27.86a2.23,2.23,0,0,1-2.1-2.32,2.27,2.27,0,0,1,2.15-2.28C22.8,23.14,23.56,24.2,23.9,25.61Z"/><path class="cls-9" d="M30.27,22.56a4.22,4.22,0,0,1,2.18-3c1.6.27,2.73,1.16,2.65,2.85a2.72,2.72,0,0,1-1.44,1.87C31.71,25.17,31.33,23.13,30.27,22.56Z"/><path class="cls-10" d="M36.35,30.76c1.44.18,2.58.88,2.43,2.41a2.32,2.32,0,0,1-2.65,2.24A2.2,2.2,0,0,1,34,33.19C33.91,31.59,34.83,30.87,36.35,30.76Z"/><path class="cls-7" d="M58.64,9.79C59.9,10,61,10.6,60.9,12a2.35,2.35,0,0,1-2.6,2.42,2.21,2.21,0,0,1-2.24-2.25C56,10.53,57.12,9.87,58.64,9.79Z"/><path class="cls-9" d="M54,27c-2.36,2.71-2.36,2.71-4.89,1,1.31-2.24,3.26-.88,4.95-.89Z"/><path class="cls-11" d="M8,21c.77-1.36,2.16-.91,3.32-1.16,1.48,1.14.33,2-.48,2.53C9.26,23.46,8.71,22,8,21Z"/></g></g></svg>