<svg xmlns="http://www.w3.org/2000/svg" viewBox="0 0 64 59.18"><defs><style>.cls-1{fill:#4595d8;}.cls-2{fill:#4091d7;}.cls-3{fill:#368cd5;}.cls-4{fill:#3d90d7;}.cls-5{fill:#3a8ed6;}</style></defs><title>Ресурс 1</title><g id="Слой_2" data-name="Слой 2"><g id="Слой_1-2" data-name="Слой 1"><path class="cls-1" d="M64,55.05c-1.1,1-2.14,2-3.31,2.87a5.51,5.51,0,0,1-5.65.8c-1.65-.76-.88-2.67-.88-4.06-.06-12.45-.09-24.91,0-37.36,0-1.75-1.31-4.34,1.38-5.16,2.39-.72,4.54.5,6.24,2.27.79.82,1.46,1.75,2.19,2.64ZM56.73,35.48c0,5.84,0,11.67,0,17.5,0,1.15-.85,3,1.12,3.27,1.59.18,2.78-1.1,3.24-2.64a14,14,0,0,0,.57-3.91q.07-13.74,0-27.49a16.91,16.91,0,0,0-.63-4.42c-.43-1.49-1.43-2.93-3.15-2.64s-1.14,2.14-1.16,3.33C56.69,24.15,56.73,29.82,56.73,35.48Z"/><path class="cls-2" d="M0,17.05c1.38-1.17,1.7-3.15,3.4-4.14a6.33,6.33,0,0,1,5.71-.59c1.64.7.85,2.65.85,4,.06,12.43.09,24.85,0,37.27,0,1.77,1.24,4.41-1.3,5.17a6.07,6.07,0,0,1-7.36-2.68L0,54.05Zm7.72,18.5c0-5.81,0-11.62,0-17.43,0-1.35.66-3.39-1.52-3.59-1.92-.16-2.93,1.39-3.23,3.16a23.85,23.85,0,0,0-.22,4q0,13.69,0,27.39A29.3,29.3,0,0,0,3,54a2.9,2.9,0,0,0,3.17,2.58c1.9-.15,1.53-1.86,1.54-3.11C7.74,47.5,7.72,41.53,7.72,35.55Z"/><path class="cls-3" d="M52.16,35.69c0,6.65-.1,13.3,0,20,.06,2.59-.76,3.46-3.4,3.44q-16.71-.18-33.42,0c-2.44,0-3.59-.48-3.56-3.26q.18-20.2,0-40.42c0-2.57.75-3.45,3.39-3.42,11.14.12,22.29.14,33.43,0,3,0,3.62,1.09,3.56,3.78C52.06,22.38,52.16,29,52.16,35.69ZM50,35.56c0-5.82-.12-11.63,0-17.44.08-2.74-.65-3.84-3.59-3.79q-14.19.22-28.4,0c-2.94,0-4.08.78-4,3.93.17,11.63.14,23.26,0,34.89,0,2.78.77,3.78,3.64,3.74q14.2-.23,28.41,0c3,.05,4.1-.78,4-3.91C49.82,47.2,50,41.37,50,35.56Z"/><path class="cls-4" d="M32.4.09c4.31,0,9.05-.82,10.11,5.31.23,1.33.42,2.82-1.35,3.25S39,7.8,38.94,6.3c0-2.31-1.7-2.56-3.47-2.57-2.17,0-4.33,0-6.5,0-2,0-3.69.37-3.78,2.88,0,1.32-.47,2.37-2.06,2.06s-1.27-1.71-1.29-2.81C21.78,2.41,23.75.61,26.91.13A37.21,37.21,0,0,1,32.4.09Z"/><path class="cls-5" d="M40,36.52c-.06,1.65-1.31,1.87-2.45,1.76-2.84-.27-4,.86-3.69,3.7.14,1.2-.18,2.57-1.63,2.6-1.78,0-2.07-1.47-1.94-2.85.24-2.63-.88-3.65-3.45-3.44-1.18.1-2.59-.08-2.61-1.61s1.39-1.74,2.57-1.62c2.51.25,3.73-.58,3.51-3.3-.11-1.31.13-2.91,2-2.79,1.51.09,1.68,1.49,1.56,2.66-.24,2.54.66,3.74,3.35,3.43C38.34,34.92,39.57,35,40,36.52Z"/></g></g></svg>