<svg xmlns="http://www.w3.org/2000/svg" viewBox="0 0 64 64"><defs><style>.cls-1{fill:#338ad5;}.cls-2{fill:#4192d8;}</style></defs><title>Ресурс 3</title><g id="Слой_2" data-name="Слой 2"><g id="Слой_1-2" data-name="Слой 1"><path class="cls-1" d="M0,60c2.29-4.9,5.29-9.16,10.27-11.72s5.78-2.47,8.12,2.69c2.26-1.67,4.41-4.4,7.48-1.2.59.62,1.94.32,2.26-1,.82-3.55,3.09-2.29,5-1.32,6.82,3.52,14.08,1.19,21.12,1.77,1.56.13,1.86-1,1.86-2.33,0-8.16,0-16.33,0-24.49,0-2.38-1.24-2.68-3.14-2.67-9,0-18,0-28.3,0C33.37,24,37.1,29.86,34,38.43a11.76,11.76,0,0,1-12.56,7.85c-5.33-.46-9.47-4.34-10.86-10.19-1.46-6.11,1.22-11,8.58-15.7-5-1.61-5-1.61-2.83-6.59C20.23,4.91,20.23,4.91,30,4.91A87.36,87.36,0,0,1,40,5c4.1.48,5.38-1.28,5-5h7c.63,1.63-1.12,4.94,1.88,4.7,4.64-.36,5.39,2.8,6.8,5.71C61.75,12.62,62.89,14.8,64,17v2c-4.57,0-5.4,2.55-5.18,6.66.35,6.6.09,13.24.09,19.86s0,6.53-6.29,6.53c-3.73,0-7.46,0-11.91,0,2.61,4.11,5.18,7.49,4.29,12H0ZM18.53,16.56H60.22c-.93-2.22-1.75-4-2.42-5.83a4.11,4.11,0,0,0-4.48-3c-9.48.13-19,.07-28.46,0-1.57,0-3,.1-3.68,1.84C20.34,11.92,18.7,13.92,18.53,16.56ZM32.29,33.63c.09-6-4-10.56-9.47-10.59S13.05,27.6,13.05,33.4c0,5.46,4.24,10.21,9.29,10.41C27.69,44,32.2,39.4,32.29,33.63ZM17.59,60c-2-3-1.34-7-3.39-10.32-5.54,2-9.33,5.39-11,11.3h38.7c-1.2-6-4.79-9.51-10.79-10.66C29,53.16,30.27,57.43,27.45,60c-2.64-1-2.54-4.21-4.79-5C20.48,56.19,20.56,59.36,17.59,60Z"/><path class="cls-2" d="M52.18,34.52c0,7.51,0,7.38-7.13,7.22-3.11-.08-4.14-1.32-3.87-4.21.11-1.31-.1-2.65,0-4,.21-1.83-1-4.45,1.52-5.18s5.84-1,8.28.11S51.65,32.73,52.18,34.52Zm-2.91-.12c-.12-1.25.66-3.51-2.64-3.52-2.93,0-2.68,1.88-2.52,3.67S43,38.75,46.43,38.9C49.59,39,49.34,37,49.27,34.4Z"/></g></g></svg>