<svg xmlns="http://www.w3.org/2000/svg" viewBox="0 0 464.09 463.31"><defs><style>.cls-1{fill:#3089d5;}</style></defs><title>Ресурс 1</title><g id="Слой_2" data-name="Слой 2"><g id="Слой_1-2" data-name="Слой 1"><rect class="cls-1" x="120.84" y="451.31" width="228.61" height="12"/><rect class="cls-1" x="72.13" y="425.07" width="17.71" height="12"/><rect class="cls-1" x="379.5" y="425.44" width="17.71" height="12"/><path class="cls-1" d="M191.39,154.77H155.78V119.16h35.61Zm-23.61-12h11.61V131.16H167.78Z"/><path class="cls-1" d="M252.45,154.77H216.84V119.16h35.61Zm-23.61-12h11.61V131.16H228.84v11.61Z"/><path class="cls-1" d="M310.93,154.77H275.32V119.16h35.61Zm-23.61-12h11.61V131.16H287.32Z"/><path class="cls-1" d="M192.68,257.13H157.07V221.52h35.61Zm-23.61-12h11.61V233.52H169.07Z"/><path class="cls-1" d="M252.45,257.13H216.84V221.52h35.61Zm-23.61-12h11.61V233.52H228.84v11.61Z"/><path class="cls-1" d="M312.22,257.13H276.61V221.52h35.61v35.61Zm-23.61-12h11.61V233.52H288.61Z"/><path class="cls-1" d="M192.68,308.3H157.07V272.69h35.61Zm-23.61-12h11.61V284.69H169.07Z"/><path class="cls-1" d="M252.45,308.3H216.84V272.69h35.61Zm-23.61-12h11.61V284.69H228.84V296.3Z"/><path class="cls-1" d="M312.22,308.3H276.61V272.69h35.61V308.3Zm-23.61-12h11.61V284.69H288.61Z"/><path class="cls-1" d="M191.39,206H155.78V170.34h35.61Zm-23.61-12h11.61V182.34H167.78Z"/><path class="cls-1" d="M252.45,206H216.84V170.34h35.61Zm-23.61-12h11.61V182.34H228.84V194Z"/><path class="cls-1" d="M310.93,206H275.32V170.34h35.61Zm-23.61-12h11.61V182.34H287.32Z"/><rect class="cls-1" x="380.72" y="251.13" width="13.76" height="13.75"/><rect class="cls-1" x="406.47" y="251.13" width="13.76" height="13.75"/><rect class="cls-1" x="354.97" y="251.13" width="13.76" height="13.75"/><rect class="cls-1" x="380.72" y="276.75" width="13.76" height="13.75"/><rect class="cls-1" x="406.47" y="276.75" width="13.76" height="13.75"/><rect class="cls-1" x="354.97" y="276.75" width="13.76" height="13.75"/><rect class="cls-1" x="380.72" y="302.36" width="13.76" height="13.75"/><rect class="cls-1" x="406.47" y="302.36" width="13.76" height="13.75"/><rect class="cls-1" x="354.97" y="302.36" width="13.76" height="13.75"/><rect class="cls-1" x="72.13" y="251.13" width="13.75" height="13.75"/><rect class="cls-1" x="97.88" y="251.13" width="13.75" height="13.75"/><rect class="cls-1" x="46.38" y="251.13" width="13.75" height="13.75"/><rect class="cls-1" x="72.13" y="276.75" width="13.75" height="13.75"/><rect class="cls-1" x="97.88" y="276.75" width="13.75" height="13.75"/><rect class="cls-1" x="46.38" y="276.75" width="13.75" height="13.75"/><rect class="cls-1" x="72.13" y="302.36" width="13.75" height="13.75"/><rect class="cls-1" x="97.88" y="302.36" width="13.75" height="13.75"/><rect class="cls-1" x="46.38" y="302.36" width="13.75" height="13.75"/><path class="cls-1" d="M317.84,405.83H303.07V376.31h-12v29.52h-7.89V355.65h19.89V323.87H163.67v31.78h19.89v50.18h-7.89V381.05h-12v24.78h-9.49v12h29.38V440h12V417.83h75.62V440h12V417.83h34.66v-12Zm-71.41,0H220.31v-30.1h26.12Zm24.75,0H258.43v-42.1H208.31v42.1H195.56V355.65h75.62Zm-95.51-62.18v-7.78h115.4v7.78Z"/><path class="cls-1" d="M143.22,397.32a23.93,23.93,0,0,0,19.4-23.46c0-6.19-2.35-17.32-5.58-26.45-5-14.16-11-21.05-18.31-21.05s-13.29,6.89-18.3,21.05c-3.24,9.13-5.59,20.26-5.59,26.45a23.66,23.66,0,0,0,3.53,12.47h-7.61v-60H51.47v60H34.66V236.8h72.76v-12H22.66V386.34H0v12H131.22v27H104.76v12h51.86v-12h-13.4Zm-44.46-11H87.11V352.81h-12v33.52H63.47v-48H98.76Zm28.08-12.47c0-3.8,1.62-12.6,4.32-20.76,3.25-9.81,6.32-13.64,7.57-14.57,1.25.93,4.32,4.76,7.57,14.57,2.7,8.16,4.32,17,4.32,20.76a11.89,11.89,0,0,1-23.78,0Z"/><path class="cls-1" d="M444.08,386.33V224.8h-101l-.31-136.48H124l-.5,220.9,12,0L136,100.31H330.78l.46,208.94h12V236.79h88.84V386.33H419.34v-60H360.06v60h-8.13a23.75,23.75,0,0,0,3.52-12.47c0-6.2-2.35-17.32-5.58-26.46-5-14.15-11-21-18.31-21s-13.28,6.89-18.3,21c-3.23,9.14-5.58,20.26-5.58,26.46A23.93,23.93,0,0,0,325.56,397v28.21H312.72v12h51.86v-12h-27V398.33H464.09v-12Zm-112.51-.58a11.9,11.9,0,0,1-11.89-11.89c0-3.8,1.61-12.6,4.31-20.76,3.25-9.81,6.33-13.64,7.57-14.58,1.25.94,4.33,4.77,7.58,14.58,2.7,8.16,4.31,17,4.31,20.76A11.9,11.9,0,0,1,331.57,385.75Zm52.13-32.94v33.52H372.06v-48h35.28v48H395.7V352.81Z"/><path class="cls-1" d="M257.16,78.69a6.83,6.83,0,0,1-3.15-.78l-18-9.48-18,9.48a6.77,6.77,0,0,1-9.81-7.13l3.44-20.07L197,36.49A6.76,6.76,0,0,1,200.75,25L220.91,22l9-18.26A6.71,6.71,0,0,1,236,0h0a6.71,6.71,0,0,1,6.06,3.77l9,18.26L271.22,25A6.76,6.76,0,0,1,275,36.49L260.38,50.71l3.44,20.07a6.78,6.78,0,0,1-6.66,7.91ZM233.54,67.15l0,0Zm4.89,0h0ZM236,55.75a6.71,6.71,0,0,1,3.17.79l11,5.8L248.08,50A6.79,6.79,0,0,1,250,44l9-8.72-12.37-1.8a6.78,6.78,0,0,1-5.09-3.69L236,18.6l-5.53,11.21a6.75,6.75,0,0,1-5.09,3.7L213,35.31,221.94,44a6.73,6.73,0,0,1,1.94,6l-2.11,12.31,11.07-5.82A6.7,6.7,0,0,1,236,55.75Zm-22.43-3.13,0,0Zm44.86,0h0ZM212.06,48v0Zm7.63-23.49h0Z"/><path class="cls-1" d="M300.29,69.47A7.29,7.29,0,0,1,293.13,61L295,50l-8-7.76a7.26,7.26,0,0,1,4-12.39l11-1.6,4.92-10a7.26,7.26,0,0,1,13,0h0l4.91,10,11,1.6a7.26,7.26,0,0,1,4,12.39L332,50l1.89,11a7.28,7.28,0,0,1-10.56,7.66l-9.83-5.17-9.85,5.18A7.29,7.29,0,0,1,300.29,69.47Zm13.23-18.63a7.34,7.34,0,0,1,3.38.83l3.56,1.87-.68-4a7.23,7.23,0,0,1,2.09-6.43l2.88-2.81-4-.58a7.26,7.26,0,0,1-5.47-4l-1.78-3.61-1.78,3.6a7.3,7.3,0,0,1-5.48,4l-4,.57,2.88,2.81a7.3,7.3,0,0,1,2.09,6.44l-.68,3.95,3.55-1.87A7.23,7.23,0,0,1,313.52,50.84Zm-18.09-3.29v0Zm36.17,0v0ZM309.28,23.59Z"/><path class="cls-1" d="M368.59,69.47A7.29,7.29,0,0,1,361.43,61l1.88-11-8-7.77a7.26,7.26,0,0,1,4-12.39l11-1.6,4.92-10a7.23,7.23,0,0,1,6.52-4.06h0a7.25,7.25,0,0,1,6.52,4.06l4.92,10,11,1.6a7.27,7.27,0,0,1,4,12.4l-8,7.76,1.87,11a7.27,7.27,0,0,1-10.55,7.66l-9.83-5.17L372,68.63A7.26,7.26,0,0,1,368.59,69.47Zm2-29.13,2.88,2.81a7.27,7.27,0,0,1,2.09,6.43l-.68,4,3.56-1.87a7.28,7.28,0,0,1,6.76,0l3.56,1.87-.68-4a7.28,7.28,0,0,1,2.09-6.43l2.88-2.81-4-.58a7.29,7.29,0,0,1-5.48-4l-1.77-3.61L380,35.79a7.27,7.27,0,0,1-5.48,4Zm-5.5,11.4h0Zm12.48-28.15h0Z"/><path class="cls-1" d="M75.17,69.47A7.29,7.29,0,0,1,68,61l1.88-11-8-7.77a7.26,7.26,0,0,1,4-12.39l11-1.6,4.92-10a7.23,7.23,0,0,1,6.52-4.06h0a7.25,7.25,0,0,1,6.52,4.06l4.92,10,11,1.6a7.27,7.27,0,0,1,4,12.4l-8,7.76,1.87,11a7.27,7.27,0,0,1-10.55,7.66L88.4,63.45l-9.84,5.18A7.33,7.33,0,0,1,75.17,69.47Zm2-29.13,2.88,2.81a7.27,7.27,0,0,1,2.09,6.43l-.68,4L85,51.67a7.28,7.28,0,0,1,6.76,0l3.56,1.87-.68-4a7.28,7.28,0,0,1,2.09-6.43l2.88-2.81-4-.58a7.29,7.29,0,0,1-5.48-4L88.4,32.18l-1.78,3.61a7.27,7.27,0,0,1-5.47,4Zm-5.5,11.4h0ZM84.15,23.59h0Z"/><path class="cls-1" d="M143.47,69.47A7.29,7.29,0,0,1,136.31,61l1.88-11-8-7.77a7.26,7.26,0,0,1,4-12.39l11-1.6,4.92-10a7.24,7.24,0,0,1,6.51-4.06h0a7.23,7.23,0,0,1,6.51,4h0l4.92,10,11,1.6a7.26,7.26,0,0,1,4,12.39l-8,7.77,1.88,11a7.28,7.28,0,0,1-10.56,7.66l-9.83-5.17-9.84,5.18A7.33,7.33,0,0,1,143.47,69.47ZM156.7,50.84a7.34,7.34,0,0,1,3.38.83l3.56,1.87-.68-4a7.27,7.27,0,0,1,2.09-6.44l2.88-2.8-4-.58a7.26,7.26,0,0,1-5.47-4l-1.78-3.61-1.78,3.61a7.27,7.27,0,0,1-5.47,4l-4,.58,2.88,2.81a7.28,7.28,0,0,1,2.09,6.43l-.68,4,3.56-1.87A7.34,7.34,0,0,1,156.7,50.84Zm16.73.89h0Zm-21-28.14h0Z"/></g></g></svg>