<svg xmlns="http://www.w3.org/2000/svg" viewBox="0 0 45.57 64"><defs><style>.cls-1{fill:#3189d4;}.cls-2{fill:#358cd5;}.cls-3{fill:#378dd6;}</style></defs><title>Ресурс 1</title><g id="Слой_2" data-name="Слой 2"><g id="Слой_1-2" data-name="Слой 1"><path class="cls-1" d="M30.38,0a15.64,15.64,0,0,0,5,5.9,17.31,17.31,0,0,1,7.16,13.6c.05,1.44-.18,2.83,1.37,3.95,2.68,1.94,1.25,4.87,1.16,7.36,0,1.47-1.68,1.31-2.81,1.31-12.95,0-25.9.05-38.84,0-2.92,0-4.82-5.65-2.26-8,2-1.81,1.87-3.56,2.1-5.63A17.45,17.45,0,0,1,10.84,5.63,11.07,11.07,0,0,0,15.38,0Zm8.7,28.55C37.31,26.8,36,27.1,34.74,27.09c-5,0-10,0-15,0h-3c-1.19,0-2.68,0-2.73-1.47,0-1.86,1.62-1.72,2.94-1.73s2.67,0,4,0c4,0,8-.11,12,0,2.82.11,3.58-1.31,3.14-3.69-.55-2.9-.88-5.94-3.24-8.15-1.15.6-1.38,2.67-3.11,2s-1.18-2.18-1.24-3.46c-.34-8-.33-7.93-8.41-7.41-2.15.14-3,.85-2.87,3s.05,4,0,6c0,1.08-.53,1.95-1.8,1.91-1,0-1.37-.79-1.63-1.62-.4-1.3.21-2.85-.74-4.26a13.64,13.64,0,0,0-6.3,9.56c-.61,3.65-.37,7.45-3.59,10.79Z"/><path class="cls-2" d="M31.35,55.83c3.19,1.38,6.33,2.87,9.58,4.09,2,.77,3,1.91,2.45,4.08h-3c-4.62-3.24-9.27-5.69-14.27-.66-.23.23-.49.44-.73.66h-5c-1.26-1-2.59-1.89-3.75-3s-2.19-1.44-3.5-.75C10.6,61.63,7.51,61.82,5.38,64h-3c.2-1.07-.64-2.57.76-3.12C7.84,59,12.14,56,17.46,56c3.12,6,6.05,6.45,10.05,1.48A4,4,0,0,1,31.35,55.83Z"/><path class="cls-3" d="M18.32,55.24c-7.08-3.69-10.81-10-13.47-17.18-.42-1.13-.87-2.33.65-2.91s2.06.73,2.48,1.76a41.54,41.54,0,0,0,5.41,10c5.89,7.48,13.09,7.56,19,.12a34.83,34.83,0,0,0,5.45-10c.37-1,.85-2.44,2.37-1.94,1.86.62,1.19,2.11.72,3.31-2.48,6.25-5.68,12-11.49,15.84A14.24,14.24,0,0,1,18.32,55.24Z"/></g></g></svg>