<svg xmlns="http://www.w3.org/2000/svg" viewBox="0 0 22.8 21.63"><defs><style>.cls-1{fill:#3089d5;}</style></defs><title>Ресурс 1</title><g id="Слой_2" data-name="Слой 2"><g id="Слой_1-2" data-name="Слой 1"><path class="cls-1" d="M22.12,15.27c-.68-.36-1.38-.7-2.07-1L19.66,14l-2.13-1a1.32,1.32,0,0,0-1.61.36l-.42.48-1.17,1.32c-.44.5-.62.5-1,.28a24.2,24.2,0,0,1-3.31-2,14.42,14.42,0,0,1-2.69-3q-.4-.56-.78-1.11c-.27-.4-.28-.57.17-1.07L8.31,6.54A1.33,1.33,0,0,0,8.5,4.9c-.41-.68-.83-1.35-1.25-2L7,2.52C6.62,1.86,6.2,1.21,5.78.57A1.25,1.25,0,0,0,4.66,0C2.36.23.15,2.74,0,5.25,0,5.5,0,5.74,0,6v.45A12.72,12.72,0,0,0,2.28,12.2a27.2,27.2,0,0,0,3.81,4.47A27.06,27.06,0,0,0,10.93,20a12.74,12.74,0,0,0,6,1.65l.42-.05.74-.1c2.49-.39,4.75-2.85,4.73-5.16h0A1.18,1.18,0,0,0,22.12,15.27Zm-4.2,5.22-.72.1-.28,0A11.68,11.68,0,0,1,11.4,19.1a25.67,25.67,0,0,1-4.64-3.17,25.67,25.67,0,0,1-3.66-4.3A11.71,11.71,0,0,1,1,6.29V6c0-.24,0-.47,0-.71A4.77,4.77,0,0,1,4.76,1h0a.26.26,0,0,1,.17.12c.42.64.83,1.28,1.24,1.93l.22.36c.42.66.84,1.33,1.24,2a.34.34,0,0,1-.06.45L6,7.63a1.65,1.65,0,0,0-.26,2.3l.8,1.14a14.89,14.89,0,0,0,2.89,3.17,24.39,24.39,0,0,0,3.44,2.1,1.64,1.64,0,0,0,2.26-.5l1.17-1.32.42-.48a.32.32,0,0,1,.44-.11c.71.32,1.41.67,2.11,1l.39.19,2.06,1a.24.24,0,0,1,.13.17A4.78,4.78,0,0,1,17.92,20.49Z"/><path class="cls-1" d="M12.29,4.19A5.78,5.78,0,0,1,18.07,10a.5.5,0,0,0,.5.5.5.5,0,0,0,.5-.5,6.78,6.78,0,0,0-6.78-6.77.5.5,0,1,0,0,1Z"/><path class="cls-1" d="M11.91,6.84a3.51,3.51,0,0,1,3.51,3.5.5.5,0,0,0,.5.5.5.5,0,0,0,.5-.5,4.51,4.51,0,0,0-4.51-4.5.5.5,0,0,0-.5.5A.51.51,0,0,0,11.91,6.84Z"/><path class="cls-1" d="M12.29,1.1A8.87,8.87,0,0,1,21.15,10a.5.5,0,0,0,.5.5.5.5,0,0,0,.5-.5A9.87,9.87,0,0,0,12.29.1a.51.51,0,0,0-.5.5A.5.5,0,0,0,12.29,1.1Z"/></g></g></svg>