<svg xmlns="http://www.w3.org/2000/svg" viewBox="0 0 80.23 78.49"><defs><style>.cls-1{fill:#3384cb;}.cls-2{fill:#fefefe;}.cls-3{fill:#fdfdfd;}.cls-4{fill:#e5ebf0;}.cls-5{fill:#acbfd0;}.cls-6{fill:#f4d16d;}.cls-7{fill:#f4d16e;}.cls-8{fill:#f4ce65;}</style></defs><title>Ресурс 1</title><g id="Слой_2" data-name="Слой 2"><g id="Слой_1-2" data-name="Слой 1"><path class="cls-1" d="M49.34,66.05H.89c-3.42-8.17,3.66-15.79,10.59-15.31,3.3.23,6.64,0,10.85,0-2.18-2.21-5.07-3.1-4.5-6.34.42-2.37,2.13-3.19,4-4.12-1-6.94-4-13.11-6-19.59-.93-3-2.08-6-1.37-9.24A14.21,14.21,0,0,1,31.76.43c7.86,2,12.26,9.77,9.88,17.93C39.78,24.74,37,30.82,35.4,37.3c-.19.8-.32,1.6-.55,2.73,2.42,1.1,5.11,2.2,4.75,5.46-.31,2.9-2.76,3.74-5.31,4.34l.21.94c3,0,6.1,0,9.14,0s6.29.14,8.78,2.22c9.57-7.9,19-7.5,25,.85a15.58,15.58,0,0,1-5,22.51C63.75,81.33,55,77.56,49.34,66.05Z"/><path class="cls-2" d="M31.64,40.46c-2.05.62-4,.15-6.39.37-1.83-8.57-5.61-16.34-7.64-24.67a10,10,0,0,1,4.05-11,10.69,10.69,0,0,1,11.73-1c4.11,2,6.06,5.46,5.92,10.08A24.74,24.74,0,0,1,37.41,22C35.21,28,32.92,34,31.64,40.46Z"/><path class="cls-3" d="M77.13,62.93c0,7.34-5.31,12.43-12.71,12.29A12.41,12.41,0,0,1,52.24,62.64a13,13,0,0,1,13-12.5A12.44,12.44,0,0,1,77.13,62.93Z"/><path class="cls-2" d="M50.9,55.94a19.59,19.59,0,0,0-1.38,6.57c-4,.91-40.94,1.07-46.17.24C3,57.22,5.44,54,10.63,53.89c11.78-.15,23.56-.06,35.34,0C47.63,53.86,49.32,53.94,50.9,55.94Z"/><path class="cls-4" d="M20.56,45.24c3.79-2.69,13.05-2.66,16.13-.23C33.84,46.81,25.43,47,20.56,45.24Z"/><path class="cls-5" d="M30.73,49.76c-1.64,1.74-3.41,1.44-5.62.78C27,48,29,49.71,30.73,49.76Z"/><path class="cls-6" d="M69,68.17l-10-9c1.94-2,3.15-.71,4,.39,2,2.81,6.51,3.67,7.09,7.62Z"/><path class="cls-7" d="M58.8,63c3.21.55,5,3,7.24,5.12C62.8,68.92,61.68,68.16,58.8,63Z"/><path class="cls-8" d="M64.44,56.62c3.58,1.16,4.92,2.45,6.19,6C67,61.34,65.7,60.05,64.44,56.62Z"/></g></g></svg>