<svg xmlns="http://www.w3.org/2000/svg" viewBox="0 0 79.91 78.28"><defs><style>.cls-1{fill:#203c55;}.cls-2{fill:#fdfefe;}.cls-3{fill:#fcfcfc;}.cls-4{fill:#fdfdfd;}.cls-5{fill:#d4d9de;}.cls-6{fill:#a9b4be;}.cls-7{fill:#f4d16d;}.cls-8{fill:#f4d16e;}.cls-9{fill:#f4ce65;}</style></defs><title>Ресурс 1</title><g id="Слой_2" data-name="Слой 2"><g id="Слой_1-2" data-name="Слой 1"><path class="cls-1" d="M34.38,40.14c2.79.88,4.94,2,4.73,5.18S36.23,48.91,32.89,50c7.07,1.69,13.71-1.2,19.18,2.89C60.52,45,70.61,45,77.15,54.05c5.27,7.29,2.69,17.56-5.13,22.1-8.57,5-17.44,1.13-22.92-10.21H.54C-1.6,57,2.8,51,11.37,50.69c3.31-.11,6.63,0,10.66,0-1.51-2.24-4.41-2.56-4.47-5.27-.07-2.87,1.76-4.09,4-5.13-.42-4.35-2-8.2-3.29-12.13-1.2-3.63-2.64-7.2-3.61-10.89A13.29,13.29,0,0,1,20.21,2.41a13.92,13.92,0,0,1,15.94.2,13.6,13.6,0,0,1,5.25,15c-1.19,4.16-2.75,8.21-4.19,12.29A63.73,63.73,0,0,0,34.38,40.14Z"/><path class="cls-2" d="M31.47,40.49a20.52,20.52,0,0,1-6.83-.15c-1.49-7.86-5-15.23-7.15-23-1.48-5.44.19-10,4.31-12.68a11.53,11.53,0,0,1,12.66.18c4.12,2.85,5.72,7.35,4.13,12.74C36.33,25.15,32.92,32.4,31.47,40.49Z"/><path class="cls-3" d="M2.88,63c-.28-6,2.25-9.35,7.75-9.45,11.64-.22,23.3-.1,34.95,0a5.76,5.76,0,0,1,5.06,2.24A21.64,21.64,0,0,0,49.25,63Z"/><path class="cls-4" d="M76.94,62.73A12.12,12.12,0,0,1,64.33,75.25,12.49,12.49,0,0,1,51.9,62.87,12.84,12.84,0,0,1,64.46,50,12.45,12.45,0,0,1,76.94,62.73Z"/><path class="cls-5" d="M36.65,45.12c-.89,1.7-2.27,1.59-3.59,1.58-3.63,0-7.26,0-10.9-.1a1.83,1.83,0,0,1-1.83-1.38,1.39,1.39,0,0,1,1.21-1.81c4.87-.06,9.8-1.2,14.58.63C36.34,44.12,36.4,44.59,36.65,45.12Z"/><path class="cls-6" d="M24.14,50c3.93-1.06,3.93-1.06,6.93.2C28.85,51.35,27,51.3,24.14,50Z"/><path class="cls-7" d="M68.55,68,58.93,59.3c.65-1.65,1.8-1.64,2.46-.89,2.63,3,7.09,4.44,8.41,8.56Z"/><path class="cls-8" d="M65.2,68.53c-3.83-.1-5.25-2.9-6.93-5.44C61.68,63.54,63.67,65.78,65.2,68.53Z"/><path class="cls-9" d="M70.38,62.38A10.08,10.08,0,0,1,64,56.71C67.53,57.06,69,59.71,70.38,62.38Z"/></g></g></svg>