<svg xmlns="http://www.w3.org/2000/svg" viewBox="0 0 62 62"><defs><style>.cls-1{fill:#fff;}</style></defs><title>Ресурс 1</title><g id="Слой_2" data-name="Слой 2"><g id="Слой_1-2" data-name="Слой 1"><path class="cls-1" d="M62,40.47l-9.06-6A27.07,27.07,0,1,0,32,53.52V62H60V45.53l2,1.34ZM46,29.8l-5.72,3.82A31.49,31.49,0,0,0,41,28H52a24.56,24.56,0,0,1-.77,5.26ZM32,45.53v.9a37.71,37.71,0,0,1-4,4.39V39a28.44,28.44,0,0,1,3.64.34L30,40.47v6.4ZM15,18a2,2,0,1,1-2,2A2,2,0,0,1,15,18Zm.18,6A4,4,0,0,0,17,16.53q.19-.56.42-1.08A28,28,0,0,0,26,17v9H15C15.06,25.33,15.11,24.66,15.18,24ZM35.78,13.6A26.2,26.2,0,0,1,28,15V3.18A37.28,37.28,0,0,1,35.78,13.6ZM28,17a27.88,27.88,0,0,0,8.63-1.53A29.88,29.88,0,0,1,39,26H28Zm10-4a2,2,0,1,1,2,2A2,2,0,0,1,38,13Zm4.29-3.27a4,4,0,0,0-5.66,1.13,38,38,0,0,0-6.77-8.69A25,25,0,0,1,43.58,8.31,13.13,13.13,0,0,1,42.29,9.73ZM26,3.19V15a26.27,26.27,0,0,1-7.8-1.34A36.92,36.92,0,0,1,26,3.19Zm-9.67,9.69a15.67,15.67,0,0,1-5.92-4.56A24.94,24.94,0,0,1,24.15,2.17,38.67,38.67,0,0,0,16.33,12.88ZM26,28v9h-.13A4,4,0,0,0,18,38c0,.12,0,.23,0,.35l-.65.22A29.78,29.78,0,0,1,15,28ZM24,38a2,2,0,1,1-2-2A2,2,0,0,1,24,38Zm-5.31,2.24A4,4,0,0,0,25.85,39H26v11.8a37.39,37.39,0,0,1-7.79-10.43Zm5.45,11.59a25,25,0,0,1-13.72-6.14,16.18,16.18,0,0,1,5.91-4.52A38.31,38.31,0,0,0,24.14,51.83ZM34,37.8A29.56,29.56,0,0,0,28,37V28H39a29.12,29.12,0,0,1-1.17,7.27ZM52,26H41a31.8,31.8,0,0,0-1.62-9.06A4.48,4.48,0,0,0,40,17a4,4,0,0,0,4-4,4.08,4.08,0,0,0-.41-1.74A14.27,14.27,0,0,0,45,9.7,24.92,24.92,0,0,1,52,26ZM9,9.71a17.65,17.65,0,0,0,6.54,5c-.18.43-.34.87-.5,1.31h0a4,4,0,0,0-1.79,7.56c-.09.82-.15,1.63-.17,2.44H2A24.88,24.88,0,0,1,9,9.71ZM2,28H13A32.14,32.14,0,0,0,15.5,39.35,17.87,17.87,0,0,0,9,44.3,25,25,0,0,1,2,28ZM29.84,51.83c.64-.61,1.37-1.36,2.16-2.26v1.91C31.28,51.63,30.57,51.75,29.84,51.83ZM50,60H42V48h8Zm8,0H52V46H40V60H34V44.2l12-8,12,8Zm2-16.87L46,33.8,32,43.13v-1.6L46,32.2l14,9.33Z"/></g></g></svg>