<svg xmlns="http://www.w3.org/2000/svg" viewBox="0 0 33.6 48"><defs><style>.cls-1{fill:#fff;}</style></defs><title>Ресурс 1</title><g id="Слой_2" data-name="Слой 2"><g id="Слой_1-2" data-name="Слой 1"><path class="cls-1" d="M29.6,0H4A4,4,0,0,0,0,4V44a4,4,0,0,0,4,4H29.6a4,4,0,0,0,4-4V4A4,4,0,0,0,29.6,0Zm2,44a2,2,0,0,1-2,2H4a2,2,0,0,1-2-2V4A2,2,0,0,1,4,2H29.6a2,2,0,0,1,2,2Z"/><path class="cls-1" d="M28.5,4.9H5.1a.94.94,0,0,0-1,1v7.3a.94.94,0,0,0,1,1H28.5a.94.94,0,0,0,1-1V5.9A.94.94,0,0,0,28.5,4.9Zm-1,7.3H6.1V6.9H27.5Z"/><path class="cls-1" d="M10.4,16.9H5.1a.94.94,0,0,0-1,1v5.6a.94.94,0,0,0,1,1h5.3a.94.94,0,0,0,1-1V17.9A.94.94,0,0,0,10.4,16.9Zm-1,5.6H6.1V18.9H9.4Z"/><path class="cls-1" d="M19.5,16.9H14.2a.94.94,0,0,0-1,1v5.6a.94.94,0,0,0,1,1h5.3a.94.94,0,0,0,1-1V17.9A1,1,0,0,0,19.5,16.9Zm-1,5.6H15.2V18.9h3.3Z"/><path class="cls-1" d="M28.5,16.9H23.2a.94.94,0,0,0-1,1v5.6a.94.94,0,0,0,1,1h5.3a.94.94,0,0,0,1-1V17.9A.94.94,0,0,0,28.5,16.9Zm-1,5.6H24.2V18.9h3.3Z"/><path class="cls-1" d="M10.4,26.2H5.1a.94.94,0,0,0-1,1v5.6a.94.94,0,0,0,1,1h5.3a.94.94,0,0,0,1-1V27.2A.94.94,0,0,0,10.4,26.2Zm-1,5.6H6.1V28.2H9.4Z"/><path class="cls-1" d="M19.5,26.2H14.2a.94.94,0,0,0-1,1v5.6a.94.94,0,0,0,1,1h5.3a.94.94,0,0,0,1-1V27.2A1,1,0,0,0,19.5,26.2Zm-1,5.6H15.2V28.2h3.3Z"/><path class="cls-1" d="M28.5,26.2H23.2a.94.94,0,0,0-1,1v5.6a.94.94,0,0,0,1,1h5.3a.94.94,0,0,0,1-1V27.2A.94.94,0,0,0,28.5,26.2Zm-1,5.6H24.2V28.2h3.3Z"/><path class="cls-1" d="M10.4,35.5H5.1a.94.94,0,0,0-1,1v5.6a.94.94,0,0,0,1,1h5.3a.94.94,0,0,0,1-1V36.5A.94.94,0,0,0,10.4,35.5Zm-1,5.6H6.1V37.5H9.4Z"/><path class="cls-1" d="M19.5,35.5H14.2a.94.94,0,0,0-1,1v5.6a.94.94,0,0,0,1,1h5.3a.94.94,0,0,0,1-1V36.5A1,1,0,0,0,19.5,35.5Zm-1,5.6H15.2V37.5h3.3Z"/><path class="cls-1" d="M28.5,35.5H23.2a.94.94,0,0,0-1,1v5.6a.94.94,0,0,0,1,1h5.3a.94.94,0,0,0,1-1V36.5A.94.94,0,0,0,28.5,35.5Zm-1,5.6H24.2V37.5h3.3Z"/></g></g></svg>