<svg xmlns="http://www.w3.org/2000/svg" viewBox="0 0 92.7 61.78"><defs><style>.cls-1{fill:#fff;}</style></defs><title>Ресурс 1</title><g id="Слой_2" data-name="Слой 2"><g id="Слой_1-2" data-name="Слой 1"><path class="cls-1" d="M12.2,48.5H3v4h9.2a11.1,11.1,0,1,0,0-4Zm18.1,2a7.1,7.1,0,1,1-7.1-7.1h0A7.1,7.1,0,0,1,30.3,50.5Z"/><path class="cls-1" d="M92.6,50.5V28.4L83,11.8H60.7V0H3V4H56.7V48.5H34.5v4H62.9a11.1,11.1,0,0,0,21.9,0h7.9ZM80.7,15.8l6.6,11.3H60.7V15.8ZM62.9,48.5H60.7V31.1H88.6V48.5H84.8a11.1,11.1,0,0,0-21.9,0Zm10.9,9.1a7.1,7.1,0,1,1,7.1-7.1h0a7.1,7.1,0,0,1-7.1,7.1Z"/><polygon class="cls-1" points="10.3 8 0 18.4 10.3 28.7 13.1 25.9 7.6 20.4 34 20.4 34 16.4 7.6 16.4 13.1 10.9 10.3 8"/><polygon class="cls-1" points="15.2 33.4 41.6 33.4 36.1 38.9 38.9 41.7 49.2 31.4 38.9 21 36.1 23.9 41.6 29.4 15.2 29.4 15.2 33.4"/></g></g></svg>