<svg xmlns="http://www.w3.org/2000/svg" viewBox="0 0 64.34 48.01"><defs><style>.cls-1{fill:#fff;}.cls-2{fill:none;stroke:#fff;stroke-miterlimit:10;}</style></defs><title>Ресурс 1</title><g id="Слой_2" data-name="Слой 2"><g id="Слой_1-2" data-name="Слой 1"><path class="cls-1" d="M17.27,19.7a3.38,3.38,0,1,1,3.38-3.38A3.38,3.38,0,0,1,17.27,19.7Zm0-4.75a1.38,1.38,0,1,0,1.38,1.37A1.37,1.37,0,0,0,17.27,15Z"/><path class="cls-1" d="M63.81,9a1,1,0,0,0-1.39-.28,1,1,0,0,0-.28,1.38c0,.05.76,1.2-.79,2.41l-.18.14s0,0,0,0c-.48-2.09-1.62-2.63-2.26-2.76A2.82,2.82,0,0,0,56.12,11a2.29,2.29,0,0,0-.33,2.5,3.66,3.66,0,0,0,2.46,1.88,4.17,4.17,0,0,0,.54.07,5.51,5.51,0,0,1-2.49,1.86C53,9.75,43.42,4.58,34.61,3.83a29.75,29.75,0,0,0-7.28.32.5.5,0,0,1-.4-.12C21-.74,13.94-.17,11.21.3A2,2,0,0,0,9.58,2.35a10.67,10.67,0,0,0,3.26,7,.41.41,0,0,1,.13.35.47.47,0,0,1-.19.35,16.73,16.73,0,0,0-5.63,6.73.6.6,0,0,1-.47.32l-4.46.62A2.57,2.57,0,0,0,0,20.3a21,21,0,0,0,3.18,11,2.83,2.83,0,0,0,1.64,1.16A15.61,15.61,0,0,0,8.27,33a1,1,0,0,1,.8.44,18.68,18.68,0,0,0,5.14,5.21l-1.45,5.16A3.34,3.34,0,0,0,16,48h6.66A3.34,3.34,0,0,0,26,44.68V43a38.58,38.58,0,0,0,5,.43,38.3,38.3,0,0,0,6.12-.35l-.13,1.22a3.34,3.34,0,0,0,.84,2.58A3.3,3.3,0,0,0,40.24,48h5.87a3.33,3.33,0,0,0,3.1-2.13A28.83,28.83,0,0,0,51.07,37,18.41,18.41,0,0,0,57.52,22.6,13.88,13.88,0,0,0,57,19.23,6.62,6.62,0,0,0,61.18,15a7.7,7.7,0,0,0,1.41-.89C65,12.22,64.43,10,63.81,9ZM49.44,35.8a1,1,0,0,0-.35.73,27.17,27.17,0,0,1-1.75,8.64,1.32,1.32,0,0,1-1.23.84H40.24a1.32,1.32,0,0,1-1.32-1.47L39.19,42a1,1,0,0,0-.31-.84,1,1,0,0,0-.68-.27l-.18,0a36.52,36.52,0,0,1-7,.52,37.4,37.4,0,0,1-5.84-.59,1,1,0,0,0-.82.21,1,1,0,0,0-.36.77v2.84A1.34,1.34,0,0,1,22.63,46H16a1.32,1.32,0,0,1-1.06-.53,1.34,1.34,0,0,1-.22-1.16l1.64-5.85a1,1,0,0,0-.42-1.11,17.05,17.05,0,0,1-5.15-5A2.94,2.94,0,0,0,8.33,31a13.38,13.38,0,0,1-3-.47.89.89,0,0,1-.51-.34A19.09,19.09,0,0,1,2,20.26a.56.56,0,0,1,.49-.57L7,19.07a2.59,2.59,0,0,0,2-1.52,14.81,14.81,0,0,1,5-5.91,2.46,2.46,0,0,0,.29-3.72,8.84,8.84,0,0,1-2.72-5.65C13.47,2,20.19,1.21,25.68,5.6a2.54,2.54,0,0,0,2,.52,28.22,28.22,0,0,1,6.79-.3c12.67,1.09,20.81,9.59,21.08,16.85A16.5,16.5,0,0,1,49.44,35.8Zm9.23-22.34a1.66,1.66,0,0,1-1.12-.85,1.05,1.05,0,0,1,.76-.79h.09c.47,0,.72.87.81,1.27a2,2,0,0,1,.07.41A2.05,2.05,0,0,1,58.67,13.46Z"/><path class="cls-2" d="M39.54,24.14a5.89,5.89,0,0,0-1.67-.87c-.57-.2-1.17-.38-1.79-.53l-1.77-.4a8.3,8.3,0,0,1-1.48-.46,3.37,3.37,0,0,1-1-.65,1.58,1.58,0,0,1-.45-.92,2.17,2.17,0,0,1,.05-1,2.23,2.23,0,0,1,.52-.9,2.89,2.89,0,0,1,1-.68,5.06,5.06,0,0,1,3-.1,3.23,3.23,0,0,1,1.07.52,2.47,2.47,0,0,1,.71.88,3.11,3.11,0,0,1,.26,1.32.62.62,0,0,0,.62.62h1.46a.62.62,0,0,0,.62-.62,5.77,5.77,0,0,0-.38-2.08,5.07,5.07,0,0,0-1.15-1.76,5.56,5.56,0,0,0-1.91-1.18A7,7,0,0,0,35.84,15V13a.62.62,0,0,0-.62-.62h-1a.62.62,0,0,0-.62.62v2a7.17,7.17,0,0,0-1.48.31,5.85,5.85,0,0,0-1.92,1.09A4.72,4.72,0,0,0,29,18a4.53,4.53,0,0,0-.4,1.87,4.66,4.66,0,0,0,.5,2.26,4.37,4.37,0,0,0,1.29,1.47,6.17,6.17,0,0,0,1.74.87A19.08,19.08,0,0,0,34,25c.62.14,1.22.29,1.81.44a5.67,5.67,0,0,1,1.42.54,2.65,2.65,0,0,1,.91.77,2,2,0,0,1,.31,1.16,2.93,2.93,0,0,1-.2,1.06,2.21,2.21,0,0,1-.57.83,2.92,2.92,0,0,1-1.06.6,6.17,6.17,0,0,1-3.23,0,3.32,3.32,0,0,1-1.21-.58,2.86,2.86,0,0,1-.83-1,4,4,0,0,1-.42-1.6.61.61,0,0,0-.61-.56H28.84a.61.61,0,0,0-.61.61,6.19,6.19,0,0,0,.49,2.56,5,5,0,0,0,1.39,1.85,5.62,5.62,0,0,0,2.08,1.11,7.82,7.82,0,0,0,1.41.28V35a.62.62,0,0,0,.62.62h1a.62.62,0,0,0,.62-.62V33.1a6.67,6.67,0,0,0,3.6-1.3,4.8,4.8,0,0,0,1.78-4,5,5,0,0,0-.46-2.22A4.29,4.29,0,0,0,39.54,24.14Z"/></g></g></svg>