<svg xmlns="http://www.w3.org/2000/svg" viewBox="0 0 70.49 62.73"><defs><style>.cls-1{fill:#fff;}</style></defs><title>Ресурс 1</title><g id="Слой_2" data-name="Слой 2"><g id="Слой_1-2" data-name="Слой 1"><path class="cls-1" d="M29.88,52.3A30.13,30.13,0,0,0,38.2,41.48c.85.32,1.68.68,2.5,1.06l-1-2.58L39,39.64l.33-.89-1.13-3.07A30.9,30.9,0,0,1,37.08,39a34.33,34.33,0,0,0-8.86-1.43V26.5H39.3c0,.24,0,.48,0,.72,0,.52,0,1,0,1.55l1.95.72c.06-.75.09-1.5.09-2.27,0-.24,0-.48,0-.72H52.43c0,.24,0,.48,0,.72a24.59,24.59,0,0,1-.77,6.11l1.91.7a27.26,27.26,0,1,0-10.4,15.23l-.73-2A25.07,25.07,0,0,1,29.88,52.3ZM52.3,24.5H41.2A34.19,34.19,0,0,0,39,14.8a32.64,32.64,0,0,0,7.46-3.89A25.14,25.14,0,0,1,52.3,24.5ZM45.07,9.42A30.57,30.57,0,0,1,38.2,13,30.24,30.24,0,0,0,29.88,2.14,25.14,25.14,0,0,1,45.07,9.42Zm-16.85-6a27.87,27.87,0,0,1,8.07,10.2,32.25,32.25,0,0,1-8.07,1.29Zm0,13.49a34.33,34.33,0,0,0,8.86-1.43,31.53,31.53,0,0,1,2.11,9.06h-11ZM24.56,2.14A30.21,30.21,0,0,0,16.25,13,30.43,30.43,0,0,1,9.37,9.42,25.17,25.17,0,0,1,24.56,2.14ZM8,10.91a32.05,32.05,0,0,0,7.46,3.89,33.53,33.53,0,0,0-2.22,9.7H2.15A25.07,25.07,0,0,1,8,10.91ZM2,27.22c0-.24,0-.48,0-.72H13.15c0,.24,0,.48,0,.72a34,34,0,0,0,2.34,12.4A32.54,32.54,0,0,0,8,43.52,25.13,25.13,0,0,1,2,27.22ZM9.38,45a30,30,0,0,1,6.87-3.54A30.18,30.18,0,0,0,24.56,52.3,25.13,25.13,0,0,1,9.38,45Zm16.84,6a28,28,0,0,1-8.06-10.21,31.78,31.78,0,0,1,8.06-1.28Zm0-13.51A34.48,34.48,0,0,0,17.35,39a32.33,32.33,0,0,1-2.23-11.77c0-.24,0-.48,0-.72H26.22V37.56Zm0-13.06h-11a32.35,32.35,0,0,1,2.11-9.07,33.92,33.92,0,0,0,8.86,1.44V24.5Zm0-9.63a32.24,32.24,0,0,1-8.06-1.29,28,28,0,0,1,8.06-10.2Zm2,24.71a31.79,31.79,0,0,1,8.07,1.28,28,28,0,0,1-8.07,10.21Z"/><polygon class="cls-1" points="61.43 45.69 68.94 42.6 69.26 42.28 38.85 31.08 50.04 61.5 50.36 61.17 53.45 53.66 62.52 62.73 70.49 54.76 61.43 45.69"/></g></g></svg>