<svg xmlns="http://www.w3.org/2000/svg" viewBox="0 0 62 62"><defs><style>.cls-1{fill:#fff;}</style></defs><title>Ресурс 1</title><g id="Слой_2" data-name="Слой 2"><g id="Слой_1-2" data-name="Слой 1"><path class="cls-1" d="M33,4a1,1,0,0,0,0,2A27,27,0,1,1,6,33a1,1,0,0,0-2,0A29,29,0,1,0,33,4Z"/><path class="cls-1" d="M42.29,43.71a1,1,0,0,0,1.42,0,1,1,0,0,0,0-1.42L34,32.59V17a1,1,0,0,0-2,0V33a1,1,0,0,0,.29.71Z"/><path class="cls-1" d="M30,29V5a1,1,0,0,0-1-1H24V3a3,3,0,0,0-3-3H9A3,3,0,0,0,6,3V4H1A1,1,0,0,0,0,5V29a1,1,0,0,0,1,1H29A1,1,0,0,0,30,29ZM8,3A1,1,0,0,1,9,2H21a1,1,0,0,1,1,1V4H8ZM2,6H28v5a3,3,0,0,1-3,3H19V11a1,1,0,0,0-1-1H12a1,1,0,0,0-1,1v3H5a3,3,0,0,1-3-3V6Zm11,6h4v5a1,1,0,0,1-1,1H14a1,1,0,0,1-1-1ZM2,28V15a4.92,4.92,0,0,0,3,1h6v1a3,3,0,0,0,3,3h2a3,3,0,0,0,3-3V16h6a4.92,4.92,0,0,0,3-1V28Z"/><path class="cls-1" d="M22.38,53.39l1.49-2.57a1,1,0,1,0-1.74-1l-1.48,2.57a23.29,23.29,0,0,1-7-7l2.57-1.49a1,1,0,0,0,.37-1.36,1,1,0,0,0-1.37-.37l-2.57,1.49A22.8,22.8,0,0,1,10,34h3a1,1,0,0,0,0-2H9a1,1,0,0,0-1,1,24.87,24.87,0,0,0,3.33,12.44l0,.06.06.07a25.14,25.14,0,0,0,9.05,9s0,0,0,0l.09,0a24.91,24.91,0,0,0,24.83,0l.08,0s0,0,0,0a25.16,25.16,0,0,0,9.06-9s0,0,0-.07,0,0,0-.06a24.9,24.9,0,0,0,0-24.88s0,0,0-.06l0-.05a25.22,25.22,0,0,0-9.06-9.06l0,0-.06,0A24.84,24.84,0,0,0,33,8a1,1,0,0,0-1,1v4a1,1,0,0,0,2,0V10a22.8,22.8,0,0,1,9.62,2.59l-1.49,2.57a1,1,0,0,0,1.74,1l1.48-2.57a23.29,23.29,0,0,1,7,7l-2.57,1.49a1,1,0,0,0,.5,1.86,1,1,0,0,0,.5-.13l2.57-1.49A22.8,22.8,0,0,1,56,32H53a1,1,0,0,0,0,2h3a22.65,22.65,0,0,1-2.58,9.62l-2.57-1.49a1,1,0,0,0-1,1.74l2.57,1.48a23.29,23.29,0,0,1-7,7l-1.49-2.57a1,1,0,0,0-1.73,1l1.49,2.57A22.8,22.8,0,0,1,34,56V53a1,1,0,0,0-2,0v3A22.65,22.65,0,0,1,22.38,53.39Z"/></g></g></svg>