<svg xmlns="http://www.w3.org/2000/svg" viewBox="0 0 56.4 52.33"><defs><style>.cls-1{fill:#fff;}</style></defs><title>Ресурс 1</title><g id="Слой_2" data-name="Слой 2"><g id="Слой_1-2" data-name="Слой 1"><path class="cls-1" d="M56,44.25a1.71,1.71,0,0,0-1.36-.66h-3v-.16A1.74,1.74,0,0,0,49.91,42H46.65V10.33h3A1.65,1.65,0,0,0,51.26,9H53.6a1.66,1.66,0,0,0,1.65-1.67,1.24,1.24,0,0,0,0-.33l-.52-2.26a1.64,1.64,0,0,0-1.61-1.29h-.92a1.65,1.65,0,0,0-1.61-1.26H48.21V1.7A1.7,1.7,0,0,0,46.5,0H11A1.76,1.76,0,0,0,9.38,1h-4A1.73,1.73,0,0,0,3.63,2.54H2.36A1.74,1.74,0,0,0,.66,3.9L0,6.61A1.75,1.75,0,0,0,1.35,8.7a1.72,1.72,0,0,0,.39,0h3V8.9a1.75,1.75,0,0,0,1.71,1.42h4.33V42H6.69a1.67,1.67,0,0,0-1.62,1.33H2.73A1.66,1.66,0,0,0,1.09,45a1.84,1.84,0,0,0,0,.33l.52,2.27A1.66,1.66,0,0,0,3.25,48.9h.92a1.67,1.67,0,0,0,1.61,1.26H8.12v.46a1.72,1.72,0,0,0,1.71,1.71H45.36a1.73,1.73,0,0,0,1.58-1h4a1.71,1.71,0,0,0,1.75-1.53H54a1.73,1.73,0,0,0,1.7-1.36l.66-2.71A1.73,1.73,0,0,0,56,44.25ZM52.65,6.59h-.94l.14-.76h.62Zm-3-2L49,7.94h-.8V4.57Zm-38-2.17H45.8v3H32.36a.81.81,0,0,0,0,1.61H45.8V7.9H11.64ZM2.54,6.33,2.85,5H4l.26,1.38ZM7,7.92,6.15,3.44H9.22V7.92Zm6.19,2.41H44.24V42H13.19ZM3.67,45.75h.94l-.14.76H3.85Zm3,2,.69-3.33h.8V47.8Zm38,2.17H10.53v-.7H24a.81.81,0,1,0,0-1.61H10.53V44.42H44.69Zm2.41-1v-4.5h2.28l.84,4.48Zm6.37-1.51H52.36L52.1,46h1.7Zm-27.94,1a.72.72,0,1,1,.72.72.72.72,0,0,1-.72-.72ZM30.78,6.23a.72.72,0,1,1-.72-.72.72.72,0,0,1,.72.72v0ZM27.66,18.92a.8.8,0,0,1-.8.8H16.57a.81.81,0,0,1,0-1.61H26.86a.8.8,0,0,1,.8.8Zm0,3.16a.8.8,0,0,1-.8.8H16.57a.81.81,0,0,1,0-1.61H26.86a.8.8,0,0,1,.8.8v0Zm0,3.16a.8.8,0,0,1-.8.8H16.57a.81.81,0,0,1,0-1.61H26.86a.8.8,0,0,1,.8.8v0Zm0,3.16a.8.8,0,0,1-.8.8H16.57a.81.81,0,0,1,0-1.61H26.86a.81.81,0,0,1,.81.8,0,0,0,0,1,0,0Zm0,3.16a.8.8,0,0,1-.8.8H16.57a.81.81,0,0,1,0-1.61H26.86a.81.81,0,0,1,.81.8,0,0,0,0,1,0,0Zm0,3.16a.8.8,0,0,1-.8.8H16.57a.81.81,0,0,1,0-1.61H26.86a.81.81,0,0,1,.81.8,0,0,0,0,1,0,0Zm14.11-15.8a.8.8,0,0,1-.8.8H30.68a.81.81,0,0,1,0-1.61H41a.8.8,0,0,1,.8.8Zm0,3.16a.8.8,0,0,1-.8.8H30.68a.81.81,0,0,1,0-1.61H41a.8.8,0,0,1,.8.8v0Zm0,3.16a.8.8,0,0,1-.8.8H30.68a.81.81,0,0,1,0-1.61H41a.8.8,0,0,1,.8.8v0Zm0,3.16a.8.8,0,0,1-.8.8H30.68a.81.81,0,0,1,0-1.61H41a.81.81,0,0,1,.81.8,0,0,0,0,1,0,0Zm0,3.16a.8.8,0,0,1-.8.8H30.68a.81.81,0,0,1,0-1.61H41a.81.81,0,0,1,.81.8,0,0,0,0,1,0,0Zm0,3.16a.8.8,0,0,1-.8.8H30.68a.81.81,0,0,1,0-1.61H41a.81.81,0,0,1,.81.8,0,0,0,0,1,0,0Z"/></g></g></svg>