<svg xmlns="http://www.w3.org/2000/svg" viewBox="0 0 70 92"><defs><style>.cls-1{fill:#fff;}</style></defs><title>Ресурс 1</title><g id="Слой_2" data-name="Слой 2"><g id="Слой_1-2" data-name="Слой 1"><path class="cls-1" d="M66,24H56V20C56,8.8,46.8,0,35,0S14,8.8,14,20v4H4a4,4,0,0,0-4,4V88a4,4,0,0,0,4,4H66a4,4,0,0,0,4-4V28A4,4,0,0,0,66,24ZM18,20c0-9,7.5-16,17-16s17,7,17,16v4H18ZM66,88H4V28H66ZM23,54a8,8,0,1,1,8-8A8,8,0,0,1,23,54Zm0-12a4,4,0,1,0,4,4A4,4,0,0,0,23,42ZM47,78a8,8,0,1,1,8-8A8,8,0,0,1,47,78Zm0-12a4,4,0,1,0,4,4A4,4,0,0,0,47,66ZM18,77a2,2,0,0,1-1.4-.6,1.93,1.93,0,0,1,0-2.8l34-34a2,2,0,0,1,2.8,2.8l-34,34A2,2,0,0,1,18,77Z"/></g></g></svg>