<svg xmlns="http://www.w3.org/2000/svg" viewBox="0 0 88 88"><defs><style>.cls-1{fill:#fff;}</style></defs><title>Ресурс 1</title><g id="Слой_2" data-name="Слой 2"><g id="Слой_1-2" data-name="Слой 1"><path class="cls-1" d="M10.69,0A2,2,0,0,0,8.88,2L8.81,35.22A9.59,9.59,0,0,0,0,44.69V69.53A9.58,9.58,0,0,0,8.84,79v7a2,2,0,0,0,2,2H77.16a2,2,0,0,0,2-2V79A9.58,9.58,0,0,0,88,69.53V44.69a9.59,9.59,0,0,0-8.87-9.47l.09-20.37a2,2,0,0,0-.69-1.5L64.22.69a2,2,0,0,0-1.31-.5L10.91,0Zm2.19,4,49.28.19L75.22,15.75l-.09,19.44H12.81ZM9.59,39.19H78.41A5.56,5.56,0,0,1,84,44.69V69.53A5.55,5.55,0,0,1,79.16,75V68.1a2,2,0,0,0-2-2H10.84a2,2,0,0,0-2,2V75A5.53,5.53,0,0,1,4,69.53V44.69A5.55,5.55,0,0,1,9.59,39.19ZM12.84,70.1H75.16V84H12.84V70.1Z"/><path class="cls-1" d="M11.38,41.85A3.16,3.16,0,0,0,8.22,45v3.72a3.17,3.17,0,0,0,3.16,3.13H28.72a3.19,3.19,0,0,0,3.16-3.13V45a3.18,3.18,0,0,0-3.16-3.12Z"/><path class="cls-1" d="M62.31,41.85a5,5,0,1,0,5,5A5,5,0,0,0,62.31,41.85Z"/><path class="cls-1" d="M75.78,41.85a5,5,0,1,0,5,5A5,5,0,0,0,75.78,41.85Z"/></g></g></svg>