<svg xmlns="http://www.w3.org/2000/svg" viewBox="0 0 100 99.7"><defs><style>.cls-1{fill:#fff;}</style></defs><title>Ресурс 1</title><g id="Слой_2" data-name="Слой 2"><g id="Слой_1-2" data-name="Слой 1"><path class="cls-1" d="M21.6,66.6c1.9,7.2,8.5,14.8,15.6,15.1h1.1l.6-.9c.9-1.2,2.8-3.5,4.6-5.6,1.3-1.5,2.5-3,3.5-4.2a30.28,30.28,0,0,0,3.1.2,25.28,25.28,0,0,0,2.8-.1c1,1.2,2.2,2.7,3.5,4.2,1.8,2.1,3.7,4.4,4.6,5.6l.6.9h1.1c7.1-.3,13.7-8,15.6-15.2,6.6,2.2,17.3,7.5,17.3,18.3h4c0-10.5-8.1-18.8-22.3-22.8-.9-.7-3-2.5-4.5-3.7a38.81,38.81,0,0,0,4.6-13.2A9,9,0,0,0,85.3,37a9.12,9.12,0,0,0-1.9-6.8,7.22,7.22,0,0,0-4-2.6c1.1-8.8-.8-16.1-5.3-20.2a13.46,13.46,0,0,0-12.2-3C59.1,1.5,54,0,50,0,38.2,0,30.6,2.3,26,7.3c-4,4.4-5.6,10.8-4.9,20.1A8.54,8.54,0,0,0,14.7,37a8.8,8.8,0,0,0,8,8.2,41.32,41.32,0,0,0,4.6,13.1c-1.7,1.3-4.1,3.2-5,3.9C8.4,66.3.5,74.6.5,84.8h4C4.5,74.1,15.2,68.9,21.6,66.6ZM74.5,65c-1.2,5.4-6,11.7-11,12.7-1-1.3-2.5-3.1-4-4.9-.7-.8-1.4-1.6-2-2.4a24.43,24.43,0,0,0,13.1-8.7C71.8,62.8,73.6,64.2,74.5,65Zm6.8-28.5A4.91,4.91,0,0,1,78,40.9q.3-3,.3-6.3c0-1.1,0-2.2-.1-3.3a4.35,4.35,0,0,1,2.1,1.4A5.33,5.33,0,0,1,81.3,36.5ZM29,10c3.7-4.1,10.6-6,21-6,3.8,0,8.1,1.7,9.3,3.5l.8,1.3,1.4-.4c3.9-1.1,7.2-.5,9.7,1.8C75,13.7,76.4,20.7,75,29.1c-6.7.1-11.8-8.8-13.3-11.8l-1.8-3.5-1.8,3.5c-4.2,8-13.8,7.9-22.2,7.8C31.7,25,27.7,25,25,26.2,24.6,18.6,25.8,13.4,29,10ZM18.7,36.5a4.9,4.9,0,0,1,1-3.8,5.18,5.18,0,0,1,2.1-1.4v3.3q0,3.3.3,6.3A4.76,4.76,0,0,1,18.7,36.5Zm7.1-5.4h0c.3-1.9,4-2,10.1-2,7.7.1,18,.3,23.9-7,2.8,4.6,7.8,10.7,14.4,11v1.5c0,20.1-9.3,32.7-24.3,32.7S25.8,54.8,25.8,34.6ZM42.4,70.3c-.7.8-1.4,1.6-2.1,2.5-1.5,1.8-3,3.6-4,4.9-5-1-9.9-7.3-11.1-12.7,1-.8,2.6-2.1,4.2-3.3A25,25,0,0,0,42.4,70.3Z"/><rect class="cls-1" x="34" y="37.1" width="9.8" height="4"/><rect class="cls-1" x="56" y="37.1" width="9.8" height="4"/><polygon class="cls-1" points="52.8 88 49.8 82.9 47.1 88 40.6 88.7 45.3 92.9 43.8 99.7 50.1 96.3 56.4 99.7 54.8 93.1 59.4 88.8 52.8 88"/><polygon class="cls-1" points="72.8 88 69.8 82.9 67.1 88 60.6 88.7 65.3 92.9 63.8 99.7 70.1 96.3 76.4 99.7 74.8 93.1 79.4 88.8 72.8 88"/><polygon class="cls-1" points="100 88.8 93.3 88 90.4 82.9 87.6 88 81.2 88.7 85.8 92.9 84.3 99.7 90.6 96.3 96.9 99.7 95.3 93.1 100 88.8"/><polygon class="cls-1" points="32.8 88 29.8 82.9 27.1 88 20.6 88.7 25.3 92.9 23.8 99.7 30.1 96.3 36.4 99.7 34.8 93.1 39.4 88.8 32.8 88"/><polygon class="cls-1" points="12.1 88 9.2 82.9 6.5 88 0 88.7 4.6 92.9 3.1 99.7 9.4 96.3 15.8 99.7 14.1 93.1 18.8 88.8 12.1 88"/></g></g></svg>