<svg id="Layer_1" data-name="Layer 1" xmlns="http://www.w3.org/2000/svg" width="3.74cm" height="3.45cm" viewBox="0 0 105.93 97.86"><defs><style>.cls-1{fill:#f4cc5b;stroke:#f4cc5b;stroke-miterlimit:10;}.cls-2{fill:#1d3a53;}.cls-3{fill:#4e5072;}</style></defs><title>100</title><circle class="cls-1" cx="48.93" cy="48.93" r="48.43"/><path class="cls-2" d="M2099.22,417.22h-5.79V394.89l-6.91,2.15v-4.71L2098.6,388h.62Z" transform="translate(-2082.84 -358.5)"/><path class="cls-2" d="M2123.29,405.15q0,6.06-2.51,9.26t-7.34,3.21a8.79,8.79,0,0,1-7.29-3.15c-1.68-2.09-2.55-5.1-2.59-9v-5.37c0-4.07.85-7.17,2.54-9.28a10,10,0,0,1,14.6,0c1.68,2.09,2.55,5.1,2.59,9Zm-5.8-5.9a10.74,10.74,0,0,0-1-5.29,3.35,3.35,0,0,0-3.1-1.65,3.28,3.28,0,0,0-3,1.57,10,10,0,0,0-1,4.93v7.1a11.15,11.15,0,0,0,1,5.3,3.3,3.3,0,0,0,3.11,1.74,3.24,3.24,0,0,0,3.07-1.67,10.78,10.78,0,0,0,1-5.09Z" transform="translate(-2082.84 -358.5)"/><path class="cls-2" d="M2146.16,405.15q0,6.06-2.51,9.26t-7.33,3.21a8.82,8.82,0,0,1-7.3-3.15q-2.52-3.14-2.58-9v-5.37c0-4.07.84-7.17,2.53-9.28a10,10,0,0,1,14.6,0c1.69,2.09,2.55,5.1,2.59,9Zm-5.79-5.9a10.74,10.74,0,0,0-1-5.29,3.37,3.37,0,0,0-3.1-1.65,3.3,3.3,0,0,0-3,1.57,10,10,0,0,0-1,4.93v7.1a11.15,11.15,0,0,0,1,5.3,3.31,3.31,0,0,0,3.12,1.74,3.24,3.24,0,0,0,3.07-1.67,11,11,0,0,0,1-5.09Z" transform="translate(-2082.84 -358.5)"/><path class="cls-2" d="M2160,391.8a5.16,5.16,0,0,0-4.38-2q-5.82,0-5.82,7.71a9.4,9.4,0,0,0,1.52,5.79,5.08,5.08,0,0,0,4.3,2,5.2,5.2,0,0,0,4.4-2,9.59,9.59,0,0,0,1.5-5.84A9.24,9.24,0,0,0,2160,391.8Zm-4.33,10c-.58,0-1-.33-1.23-1a9.88,9.88,0,0,1-.39-3.21,9.26,9.26,0,0,1,.39-3.17c.25-.69.67-1,1.23-1,1.08,0,1.62,1.4,1.62,4.21S2156.73,401.78,2155.65,401.78Z" transform="translate(-2082.84 -358.5)"/><path class="cls-2" d="M2177.27,401.65a5.17,5.17,0,0,0-4.39-2q-5.82,0-5.82,7.71a9.42,9.42,0,0,0,1.52,5.77,5.1,5.1,0,0,0,4.3,2,5.2,5.2,0,0,0,4.4-2,9.45,9.45,0,0,0,1.51-5.82A9.24,9.24,0,0,0,2177.27,401.65Zm-4.34,10c-.57,0-1-.35-1.23-1.06a9.61,9.61,0,0,1-.39-3.21,9.13,9.13,0,0,1,.39-3.15c.26-.69.68-1.05,1.23-1.05,1.08,0,1.62,1.4,1.62,4.22S2174,411.65,2172.93,411.65Z" transform="translate(-2082.84 -358.5)"/><polygon class="cls-2" points="90.27 31.64 76.58 56.31 72.53 56.31 86.23 31.64 90.27 31.64"/><path class="cls-3" d="M2086.39,439.75a2.44,2.44,0,0,1-.82-4.74c14.27-5.09,35.28-10.74,51.46-11.31,15.76-.56,38.36.36,50.16,4.77a2.44,2.44,0,0,1-1.7,4.57c-10.42-3.9-31.76-5.06-48.29-4.47-15.63.55-36.7,6.29-50,11A2.37,2.37,0,0,1,2086.39,439.75Z" transform="translate(-2082.84 -358.5)"/></svg>