<svg id="Layer_1" data-name="Layer 1" xmlns="http://www.w3.org/2000/svg" width="3.45cm" height="3.45cm" viewBox="0 0 97.86 97.86"><defs><style>.cls-1{fill:#f4cc5b;stroke:#f4cc5b;stroke-miterlimit:10;}.cls-2{fill:#4e5072;}.cls-3{fill:#757a90;}.cls-4{fill:#9da0af;}.cls-5{fill:#b8b9c9;}.cls-6{fill:#1d3a53;}</style></defs><title>colors</title><circle class="cls-1" cx="48.93" cy="48.93" r="48.43"/><path class="cls-2" d="M2734.48,368.62v27.91a13,13,0,0,0-6.88,2.84l-19.74-19.74A40.78,40.78,0,0,1,2734.48,368.62Z" transform="translate(-2681.34 -358.5)"/><path class="cls-3" d="M2764,379.79l-19.73,19.73a13.05,13.05,0,0,0-7.07-3V368.62A40.84,40.84,0,0,1,2764,379.79Z" transform="translate(-2681.34 -358.5)"/><path class="cls-4" d="M2776.75,408.48h-27.9a13,13,0,0,0-2.77-7l19.76-19.75A40.83,40.83,0,0,1,2776.75,408.48Z" transform="translate(-2681.34 -358.5)"/><path class="cls-5" d="M2776.73,411.15a40.77,40.77,0,0,1-11,26.35L2746,417.76a13.12,13.12,0,0,0,2.81-6.61Z" transform="translate(-2681.34 -358.5)"/><path class="cls-4" d="M2763.84,439.39a40.75,40.75,0,0,1-26.68,11.07V422.55a13,13,0,0,0,6.94-2.89Z" transform="translate(-2681.34 -358.5)"/><path class="cls-3" d="M2734.48,422.55v27.91a40.87,40.87,0,0,1-26.51-10.9l19.75-19.76A13.07,13.07,0,0,0,2734.48,422.55Z" transform="translate(-2681.34 -358.5)"/><path class="cls-2" d="M2725.8,417.94l-19.73,19.73a40.77,40.77,0,0,1-11.16-26.52h27.93A13,13,0,0,0,2725.8,417.94Z" transform="translate(-2681.34 -358.5)"/><path class="cls-6" d="M2725.7,401.26a13,13,0,0,0-2.92,7.22h-27.89a40.75,40.75,0,0,1,11.08-27Z" transform="translate(-2681.34 -358.5)"/></svg>