<svg id="Layer_1" data-name="Layer 1" xmlns="http://www.w3.org/2000/svg" width="3.45cm" height="3.52cm" viewBox="0 0 97.86 99.81"><defs><style>.cls-1{fill:#f4cc5b;stroke:#f4cc5b;stroke-miterlimit:10;}.cls-2{fill:none;}.cls-3{fill:#b8b9c9;}.cls-4{fill:#757a90;}.cls-5{fill:#1d3a53;}</style></defs><title>Corrects</title><circle class="cls-1" cx="48.93" cy="50.88" r="48.43"/><polygon class="cls-2" points="78.19 13.6 85.36 18.7 78.09 13.75 78.19 13.6"/><path class="cls-3" d="M2411.6,642.19,2435.3,658l-5.43,8.17a17.48,17.48,0,0,0-16,5.31l-7.36-4.9a17.53,17.53,0,0,0-.66-15.75Z" transform="translate(-2382.34 -590.54)"/><polygon class="cls-4" points="63.23 3.65 78.09 13.75 71.11 24.02 45.17 62.23 29.26 51.65 63.23 3.65"/><polygon class="cls-5" points="78.09 13.75 85.36 18.7 52.96 67.41 45.17 62.23 71.11 24.02 78.09 13.75"/><path class="cls-3" d="M2450.68,591l18.19,12.1a2.46,2.46,0,0,1,.69,3.41l-1.86,2.78-7.17-5.09-.1.15-14.86-10.11,1.7-2.55A2.47,2.47,0,0,1,2450.68,591Z" transform="translate(-2382.34 -590.54)"/><polygon class="cls-2" points="78.19 13.6 85.36 18.7 78.09 13.75 78.19 13.6"/><polygon class="cls-5" points="24.13 78.67 29.5 82.25 28.11 84.34 20.22 84.56 24.13 78.67"/><rect class="cls-5" x="5.76" y="86.95" width="51.11" height="3.2" rx="1.55" ry="1.55"/><rect class="cls-5" x="60.75" y="86.95" width="31.96" height="3.2" rx="1.55" ry="1.55"/></svg>