<svg id="Layer_1" data-name="Layer 1" xmlns="http://www.w3.org/2000/svg" width="3.83cm" height="3.45cm" viewBox="0 0 108.54 97.86"><defs><style>.cls-1{fill:#f4cc5b;stroke:#f4cc5b;stroke-miterlimit:10;}.cls-2{fill:none;}.cls-3{fill:#757a90;}.cls-4{fill:#1d3a53;}.cls-5{fill:#9da0af;}.cls-6{fill:#b8b9c9;}.cls-7{fill:#f9f9f9;}</style></defs><title>delivery</title><circle class="cls-1" cx="51.18" cy="48.93" r="48.43"/><path class="cls-2" d="M3061.24,665.34h0v-.28C3061.23,665.16,3061.24,665.25,3061.24,665.34Z" transform="translate(-2977.59 -592.5)"/><path class="cls-2" d="M3071,665.16c0,.06,0,.12,0,.18h0a2.53,2.53,0,0,0,0-.28A.38.38,0,0,1,3071,665.16Z" transform="translate(-2977.59 -592.5)"/><path class="cls-2" d="M3007.5,665.34h0c0-.06,0-.12,0-.18a.38.38,0,0,1,0-.1A2.53,2.53,0,0,0,3007.5,665.34Z" transform="translate(-2977.59 -592.5)"/><path class="cls-2" d="M3017.26,665.16v.18h0a2.53,2.53,0,0,0,0-.28Z" transform="translate(-2977.59 -592.5)"/><path class="cls-2" d="M3045.51,628.12l0,6.42-.06,19.66-27.27-.08h0a12.47,12.47,0,0,0-11.48,0l-19.35-.06V630.53a2.42,2.42,0,0,1,2.41-2.41Z" transform="translate(-2977.59 -592.5)"/><path class="cls-3" d="M2999.91,665.16v.18h-10.18a2.41,2.41,0,0,1-2.41-2.41V659h14.21A12.39,12.39,0,0,0,2999.91,665.16Z" transform="translate(-2977.59 -592.5)"/><path class="cls-2" d="M3007.5,665.34h0c0-.06,0-.12,0-.18a.38.38,0,0,1,0-.1A2.53,2.53,0,0,0,3007.5,665.34Z" transform="translate(-2977.59 -592.5)"/><path class="cls-2" d="M3017.26,665.16v.18h0a2.53,2.53,0,0,0,0-.28Z" transform="translate(-2977.59 -592.5)"/><path class="cls-3" d="M3053.65,665.16a1.09,1.09,0,0,0,0,.18h-28.82v-.18a12.39,12.39,0,0,0-1.62-6.14h27.1v-1.8h6.2A12.37,12.37,0,0,0,3053.65,665.16Z" transform="translate(-2977.59 -592.5)"/><path class="cls-2" d="M3061.24,665.34h0v-.28C3061.23,665.16,3061.24,665.25,3061.24,665.34Z" transform="translate(-2977.59 -592.5)"/><path class="cls-2" d="M3071,665.16c0,.06,0,.12,0,.18h0a2.53,2.53,0,0,0,0-.28A.38.38,0,0,1,3071,665.16Z" transform="translate(-2977.59 -592.5)"/><path class="cls-3" d="M3086.13,659.62v3.31a2.41,2.41,0,0,1-2.41,2.41h-5.14v-.18a12.36,12.36,0,0,0-2.86-7.94h8A2.41,2.41,0,0,1,3086.13,659.62Z" transform="translate(-2977.59 -592.5)"/><path class="cls-4" d="M3078.71,628.12h-28.39v29.1h6.2a12.45,12.45,0,0,1,19.2,0h5.39V630.53A2.42,2.42,0,0,0,3078.71,628.12Zm-2.21,18.16h-20.26V634h17.85a2.42,2.42,0,0,1,2.41,2.41Z" transform="translate(-2977.59 -592.5)"/><path class="cls-5" d="M3076.5,636.45v9.83h-20.26V634h17.85A2.42,2.42,0,0,1,3076.5,636.45Z" transform="translate(-2977.59 -592.5)"/><path class="cls-2" d="M3045.57,610l-.06,18.14,0,6.42-.06,19.66-27.27-.08h0a12.47,12.47,0,0,0-11.48,0l-19.35-.06-5,0V609.78Z" transform="translate(-2977.59 -592.5)"/><path class="cls-2" d="M3007.49,665.06a2.53,2.53,0,0,0,0,.28h0c0-.06,0-.12,0-.18A.38.38,0,0,1,3007.49,665.06Z" transform="translate(-2977.59 -592.5)"/><path class="cls-2" d="M3017.26,665.16v.18h0a2.53,2.53,0,0,0,0-.28Z" transform="translate(-2977.59 -592.5)"/><path class="cls-2" d="M3007.49,665.06a2.53,2.53,0,0,0,0,.28h0c0-.06,0-.12,0-.18A.38.38,0,0,1,3007.49,665.06Z" transform="translate(-2977.59 -592.5)"/><path class="cls-2" d="M3017.26,665.16v.18h0a2.53,2.53,0,0,0,0-.28Z" transform="translate(-2977.59 -592.5)"/><path class="cls-2" d="M3007.49,665.06a2.53,2.53,0,0,0,0,.28h0c0-.06,0-.12,0-.18A.38.38,0,0,1,3007.49,665.06Z" transform="translate(-2977.59 -592.5)"/><path class="cls-2" d="M3017.26,665.16v.18h0a2.53,2.53,0,0,0,0-.28Z" transform="translate(-2977.59 -592.5)"/><path class="cls-2" d="M3061.24,665.34h0v-.28C3061.23,665.16,3061.24,665.25,3061.24,665.34Z" transform="translate(-2977.59 -592.5)"/><path class="cls-2" d="M3071,665.16c0,.06,0,.12,0,.18h0a2.53,2.53,0,0,0,0-.28A.38.38,0,0,1,3071,665.16Z" transform="translate(-2977.59 -592.5)"/><path class="cls-2" d="M3061.24,665.34h0v-.28C3061.23,665.16,3061.24,665.25,3061.24,665.34Z" transform="translate(-2977.59 -592.5)"/><path class="cls-2" d="M3071,665.16c0,.06,0,.12,0,.18h0a2.53,2.53,0,0,0,0-.28A.38.38,0,0,1,3071,665.16Z" transform="translate(-2977.59 -592.5)"/><path class="cls-4" d="M3073.66,657.22a11,11,0,0,0-18.5,7.94v.18a11,11,0,0,0,21.91,0,1.09,1.09,0,0,0,0-.18A10.91,10.91,0,0,0,3073.66,657.22Zm-2.65,7.94c0,.06,0,.12,0,.18a4.89,4.89,0,0,1-9.77,0V665a4.89,4.89,0,0,1,9.78,0,.31.31,0,0,1,0,.1A.38.38,0,0,1,3071,665.16Z" transform="translate(-2977.59 -592.5)"/><path class="cls-2" d="M3061.24,665.34h0v-.28C3061.23,665.16,3061.24,665.25,3061.24,665.34Z" transform="translate(-2977.59 -592.5)"/><path class="cls-2" d="M3071,665.16c0,.06,0,.12,0,.18h0a2.53,2.53,0,0,0,0-.28A.38.38,0,0,1,3071,665.16Z" transform="translate(-2977.59 -592.5)"/><path class="cls-4" d="M3021.45,659a11,11,0,0,0-20,6.14,1.09,1.09,0,0,0,0,.18,11,11,0,0,0,21.91,0v-.18A10.89,10.89,0,0,0,3021.45,659Zm-4.19,6.14v.18a4.89,4.89,0,0,1-9.77,0c0-.06,0-.12,0-.18a.38.38,0,0,1,0-.1.31.31,0,0,1,0-.1,4.89,4.89,0,0,1,9.78,0v.2Z" transform="translate(-2977.59 -592.5)"/><path class="cls-4" d="M3048.51,606.66v50.56H3022a12.6,12.6,0,0,0-3.82-3.1l27.27.08.06-19.66,0-6.42.06-18.14-63.26-.2h-1.23l-.1,30.58-.05,13.65h1.38l5,0,19.35.06a12.51,12.51,0,0,0-3.9,3.14h-25.18V606.66Z" transform="translate(-2977.59 -592.5)"/><path class="cls-2" d="M3045.57,610l-.06,18.14,0,6.42-.06,19.66-27.27-.08h0a12.47,12.47,0,0,0-11.48,0l-19.35-.06-5,0h-1.38l.05-13.65.1-30.58h1.23Z" transform="translate(-2977.59 -592.5)"/><path class="cls-6" d="M3045.57,610l-.06,18.14,0,6.42-.06,19.66-27.27-.08h0a12.47,12.47,0,0,0-11.48,0l-19.35-.06-5,0h-1.38l.05-13.65.1-30.58h1.23Z" transform="translate(-2977.59 -592.5)"/><path class="cls-3" d="M3045.49,634.54l-.06,19.66-27.27-.08h0a12.47,12.47,0,0,0-11.48,0l-19.35-.06-5,0h-1.38l.05-13.65,1.33-.74,5-2.8,7.9-4.41,18.6,5.43,15.86-8.33Z" transform="translate(-2977.59 -592.5)"/><circle class="cls-7" cx="14.64" cy="27.84" r="6.66"/><rect class="cls-4" y="49.57" width="70.92" height="4.33"/><rect class="cls-4" x="53.67" y="14.16" width="2.91" height="50.56"/></svg>