<svg id="Layer_1" data-name="Layer 1" xmlns="http://www.w3.org/2000/svg" width="3.45cm" height="3.55cm" viewBox="0 0 97.86 100.69"><defs><style>.cls-1{fill:#f4cc5b;stroke:#f4cc5b;stroke-miterlimit:10;}.cls-2{fill:#1d3a53;}.cls-3{fill:#757a90;}</style></defs><title>Eco</title><circle class="cls-1" cx="48.93" cy="51.76" r="48.43"/><path class="cls-2" d="M3067.87,373.29q0,3-.27,6c0,.3,0,.61-.09.92a62.77,62.77,0,0,1-2,10.24l-.15.54c-.11.36-.21.71-.32,1.06a40.52,40.52,0,0,1-8.44,14.74q-1.42,1.59-3,3h0a43.06,43.06,0,0,1-22.82,10.71l-.72.1h0l-7.93-.77c-.36-.48-.65-1-.49-1.37a64.32,64.32,0,0,1,3.11-6.42,65.87,65.87,0,0,1,8-11.39c.1-.11.2-.22.29-.34a67.76,67.76,0,0,1,11.48-10.34l.15.59-.07-.65a69.89,69.89,0,0,1,10.34-6.07,69.38,69.38,0,0,0-10.43,5.18l-.2.12a67.72,67.72,0,0,0-12.79,10.09.86.86,0,0,0-.13.14,66.1,66.1,0,0,0-7.26,8.69,13.67,13.67,0,0,0,0-3.32.55.55,0,0,0,0-.18c0-.12,0-.24,0-.36a23.1,23.1,0,0,0-.48-2.48l-.18-.68a24.06,24.06,0,0,0-1.16-3.17h0c-.22-.5-.46-1-.71-1.47.5-1.06,1-2.09,1.64-3.09.2-.35.41-.7.63-1A42,42,0,0,1,3041.17,377c.63-.3,1.28-.59,1.93-.87l.33-.13.21-.09.69-.29a42.82,42.82,0,0,0,9.17-5.41,42.14,42.14,0,0,0,7.2-7.11c.47-.6.93-1.22,1.37-1.84a40.9,40.9,0,0,0,2.53-4.09c.26-.48.52-1,.76-1.47a66.6,66.6,0,0,1,1.67,7.42A64.47,64.47,0,0,1,3067.87,373.29Z" transform="translate(-2979.84 -355.67)"/><path class="cls-3" d="M3022.33,405.71a1.11,1.11,0,0,1,0,.17,14.08,14.08,0,0,1-.67,6h0l-.29.5a1.21,1.21,0,0,0,.05.18c-.13.33-.28.66-.44,1a14.48,14.48,0,0,1-.83,1.49l-.1.14-.07.05a38,38,0,0,0-3.78-10.27.93.93,0,0,0,0-.1,38.39,38.39,0,0,0-5.49-7.66.39.39,0,0,0-.08-.1,40.06,40.06,0,0,0-5-4.55,39.05,39.05,0,0,1,4.78,5l-.14.35.18-.3a38.69,38.69,0,0,1,4.71,7.61l.11.23a37.53,37.53,0,0,1,2.57,7.64,36.59,36.59,0,0,1,.67,4v0c.06.49.1,1,.14,1.48a2.45,2.45,0,0,0,0,.27l-1.43-.52-.51-.2a31.57,31.57,0,0,1-17.42-17.39,23.11,23.11,0,0,1-.73-5.31v-.64c0-.11,0-.22,0-.33a36.48,36.48,0,0,1,.6-6.05c0-.18.07-.35.1-.53.23-1.15.52-2.29.86-3.43a37.88,37.88,0,0,1,2.18-5.58,38.79,38.79,0,0,1,2.16-3.9l.18.95c0,.19.09.39.14.58a20.32,20.32,0,0,0,.6,2.1c.15.42.3.84.46,1.25a24.09,24.09,0,0,0,7.09,9.6l.34.28.1.07.16.13c.32.26.63.52.94.8a23.78,23.78,0,0,1,6,8.18h0a24.06,24.06,0,0,1,1.16,3.17l.18.68a23.1,23.1,0,0,1,.48,2.48C3022.31,405.47,3022.32,405.59,3022.33,405.71Z" transform="translate(-2979.84 -355.67)"/><path class="cls-2" d="M3019.31,432.86h-6.5v4.36h7.62v2.7h-11V423.64h11v2.72h-7.6v3.88h6.5Z" transform="translate(-2979.84 -355.67)"/><path class="cls-2" d="M3035.32,434.5a5.72,5.72,0,0,1-2,4.13,6.9,6.9,0,0,1-4.65,1.51,6.18,6.18,0,0,1-5-2.11,8.56,8.56,0,0,1-1.82-5.78v-1a9.61,9.61,0,0,1,.84-4.13,6.2,6.2,0,0,1,2.39-2.75,7.49,7.49,0,0,1,8.18.55,6.17,6.17,0,0,1,2,4.24H3032a3.39,3.39,0,0,0-.89-2.28,3.27,3.27,0,0,0-2.32-.71,2.88,2.88,0,0,0-2.53,1.2,6.72,6.72,0,0,0-.87,3.73v1.23a7.1,7.1,0,0,0,.81,3.85,2.83,2.83,0,0,0,2.55,1.22,3.34,3.34,0,0,0,2.34-.71,3.17,3.17,0,0,0,.88-2.19Z" transform="translate(-2979.84 -355.67)"/><path class="cls-2" d="M3051,432.15a9.62,9.62,0,0,1-.86,4.21,6.45,6.45,0,0,1-2.45,2.8,7.34,7.34,0,0,1-7.31,0,6.52,6.52,0,0,1-2.48-2.78,9.31,9.31,0,0,1-.89-4.15v-.81a9.75,9.75,0,0,1,.87-4.23,6.52,6.52,0,0,1,2.47-2.81,7.29,7.29,0,0,1,7.3,0,6.54,6.54,0,0,1,2.48,2.81,9.73,9.73,0,0,1,.87,4.22Zm-3.43-.74a6.77,6.77,0,0,0-.93-3.89,3,3,0,0,0-2.64-1.33,3,3,0,0,0-2.63,1.31,6.81,6.81,0,0,0-.93,3.85v.8a7,7,0,0,0,.92,3.87,3,3,0,0,0,2.67,1.37,3,3,0,0,0,2.61-1.32,6.88,6.88,0,0,0,.93-3.87Z" transform="translate(-2979.84 -355.67)"/></svg>