<svg id="Layer_1" data-name="Layer 1" xmlns="http://www.w3.org/2000/svg" width="3.45cm" height="3.45cm" viewBox="0 0 97.86 97.86"><defs><style>.cls-1{fill:#f4cc5b;stroke:#f4cc5b;stroke-miterlimit:10;}.cls-2{fill:#9da0af;}.cls-3{fill:#1d3a53;}.cls-4{fill:#757a90;}.cls-5{fill:#b8b9c9;}.cls-6{fill:#4e5072;}</style></defs><title>MultiPhoto</title><circle class="cls-1" cx="48.93" cy="48.93" r="48.43"/><rect class="cls-2" x="7.66" y="9.3" width="54.32" height="31.85" rx="5.93" ry="5.93"/><path class="cls-2" d="M2175.58,623.27v12.64c0,.69-.76,1.28-1.75,1.38a1.67,1.67,0,0,1-.32,0h-21.8c-1.08,0-2-.57-2.06-1.3V623.27a.75.75,0,0,1,0-.21,2,2,0,0,1,2-1.19h21.8C2174.65,621.87,2175.58,622.5,2175.58,623.27Z" transform="translate(-2082.84 -592.5)"/><path class="cls-3" d="M2139.66,677.64h-44c0-8.12,5.84-15.06,14.06-17.82h0a11.56,11.56,0,0,0,15.88,0h0C2133.83,662.58,2139.66,669.52,2139.66,677.64Z" transform="translate(-2082.84 -592.5)"/><path class="cls-4" d="M2140.49,638.57h-45.66a4.19,4.19,0,0,0-4.28,3,3.31,3.31,0,0,0-.05.55v32a2.45,2.45,0,0,0,0,.27c.17,1.83,2,3.29,4.31,3.29h.83c0-8.12,5.84-15.06,14.06-17.82h0a11.56,11.56,0,0,0,15.88,0h0c8.23,2.76,14.06,9.7,14.06,17.82h.83a4.91,4.91,0,0,0,.67,0,3.87,3.87,0,0,0,3.66-3.51v-32C2144.82,640.17,2142.87,638.57,2140.49,638.57Zm-18.3,20.37a8.77,8.77,0,1,1,4.25-7.52A8.74,8.74,0,0,1,2122.19,658.94Z" transform="translate(-2082.84 -592.5)"/><path class="cls-5" d="M2126.09,653.87a8.76,8.76,0,0,1-3.69,4.94l-.21.13a8.84,8.84,0,0,1-1.71.79,8.47,8.47,0,0,1-2.82.47,8.8,8.8,0,0,1-2.78-.45,8.9,8.9,0,0,1-1.74-.81l-.4-.25a8.84,8.84,0,0,1-3.51-4.82h2.5v-2.35a3.56,3.56,0,0,1,3.55-3.55h4.7a3.56,3.56,0,0,1,3.55,3.55v2.35Z" transform="translate(-2082.84 -592.5)"/><path class="cls-3" d="M2126.44,651.42a8.64,8.64,0,0,1-.35,2.45h-2.56v-2.35A3.56,3.56,0,0,0,2120,648h-4.7a3.56,3.56,0,0,0-3.55,3.55v2.35h-2.5a9,9,0,0,1-.34-2.45,8.78,8.78,0,0,1,17.55,0Z" transform="translate(-2082.84 -592.5)"/><path class="cls-4" d="M2175.58,634.69v1.22c0,.69-.76,1.28-1.75,1.38a1.67,1.67,0,0,1-.32,0h-21.8c-1.08,0-2-.57-2.06-1.3V624.15Z" transform="translate(-2082.84 -592.5)"/><path class="cls-5" d="M2175.58,603.2v12.63c0,.7-.76,1.28-1.75,1.39h-22.12c-1.08,0-2-.57-2.06-1.29V603.2a.78.78,0,0,1,0-.22,2,2,0,0,1,2-1.19h21.8C2174.65,601.79,2175.58,602.42,2175.58,603.2Z" transform="translate(-2082.84 -592.5)"/><path class="cls-2" d="M2175.58,614.61v1.22c0,.7-.76,1.28-1.75,1.39h-22.12c-1.08,0-2-.57-2.06-1.29V604.07Z" transform="translate(-2082.84 -592.5)"/><path class="cls-6" d="M2175.58,663.6v12.63c0,.7-.76,1.29-1.75,1.39l-.32,0h-21.8c-1.08,0-2-.58-2.06-1.3V663.6a.71.71,0,0,1,0-.21,2,2,0,0,1,2-1.19h21.8C2174.65,662.2,2175.58,662.83,2175.58,663.6Z" transform="translate(-2082.84 -592.5)"/><path class="cls-3" d="M2175.58,675v1.21c0,.7-.76,1.29-1.75,1.39l-.32,0h-21.8c-1.08,0-2-.58-2.06-1.3V664.48Z" transform="translate(-2082.84 -592.5)"/><path class="cls-4" d="M2175.58,643.52v12.64c0,.69-.76,1.28-1.75,1.38a1.67,1.67,0,0,1-.32,0h-21.8c-1.08,0-2-.57-2.06-1.3V643.52a.75.75,0,0,1,0-.21,2,2,0,0,1,2-1.19h21.8C2174.65,642.12,2175.58,642.75,2175.58,643.52Z" transform="translate(-2082.84 -592.5)"/><path class="cls-6" d="M2175.58,654.94v1.22c0,.69-.76,1.28-1.75,1.38a1.67,1.67,0,0,1-.32,0h-21.8c-1.08,0-2-.57-2.06-1.3V644.4Z" transform="translate(-2082.84 -592.5)"/><path class="cls-4" d="M2144.82,625.68v2a6,6,0,0,1-5.93,5.93h-42.46a6,6,0,0,1-5.93-5.93v-19.5Z" transform="translate(-2082.84 -592.5)"/></svg>