<svg id="Layer_1" data-name="Layer 1" xmlns="http://www.w3.org/2000/svg" width="3.76cm" height="3.45cm" viewBox="0 0 106.66 97.86"><defs><style>.cls-1{fill:#f4cc5b;stroke:#f4cc5b;stroke-miterlimit:10;}.cls-2{fill:#757a90;}.cls-3{fill:#1d3a53;}.cls-4{fill:#b8b9c9;}</style></defs><title>TimeProtect</title><circle class="cls-1" cx="48.93" cy="48.93" r="48.43"/><path class="cls-1" d="M2713.7,646.72c-.11.23-.23.46-.35.69l0-.2C2713.44,647,2713.57,646.88,2713.7,646.72Z" transform="translate(-2681.34 -592.5)"/><path class="cls-2" d="M2713.7,646.72c-.11.23-.23.46-.35.69l0-.2C2713.44,647,2713.57,646.88,2713.7,646.72Z" transform="translate(-2681.34 -592.5)"/><path class="cls-3" d="M2721.86,603.47c-3.11,1.74-15.17,8-28.71,8a40.15,40.15,0,0,1-7.86-.75l-1.92-.36-.11,1.93c0,.46-1.69,47.15,38.6,69.76Z" transform="translate(-2681.34 -592.5)"/><path class="cls-4" d="M2749,655.61A72.27,72.27,0,0,1,2721.85,682V603.45a71.31,71.31,0,0,0,14.15,5.76,55.41,55.41,0,0,0,15,2.26,40.46,40.46,0,0,0,7.89-.76l1.94-.38.07,2A88.72,88.72,0,0,1,2749,655.61Z" transform="translate(-2681.34 -592.5)"/><path class="cls-2" d="M2749,655.61a27.73,27.73,0,0,1-21.19-26.83,27.4,27.4,0,0,1,8.22-19.57,55.41,55.41,0,0,0,15,2.26,40.46,40.46,0,0,0,7.89-.76l1.94-.38.07,2A88.72,88.72,0,0,1,2749,655.61Z" transform="translate(-2681.34 -592.5)"/><ellipse class="cls-4" cx="77.97" cy="32.14" rx="26.85" ry="26.49"/><path class="cls-3" d="M2759.31,652.94a28.31,28.31,0,1,1,28.7-28.31A28.53,28.53,0,0,1,2759.31,652.94Zm0-53a24.67,24.67,0,1,0,25,24.66A24.86,24.86,0,0,0,2759.31,600Z" transform="translate(-2681.34 -592.5)"/><path class="cls-3" d="M2758.06,630.09h0a1.87,1.87,0,0,1-1.3-.56l-7.88-8.09,2.67-2.52,6.57,6.76,11.82-11.53,2.6,2.59-13.15,12.82A1.87,1.87,0,0,1,2758.06,630.09Z" transform="translate(-2681.34 -592.5)"/><rect class="cls-3" x="74.63" y="52.13" width="3.69" height="4.06"/><rect class="cls-3" x="74.63" y="8.18" width="3.69" height="4.06"/><rect class="cls-3" x="98.38" y="30.36" width="4.11" height="3.64"/><rect class="cls-3" x="53.82" y="30.36" width="4.11" height="3.64"/></svg>