<svg id="Layer_1" data-name="Layer 1" xmlns="http://www.w3.org/2000/svg" width="142.9" height="19.65" viewBox="0 0 142.9 19.65"><defs><style>.cls-1{fill:#3089d5;}.cls-2{fill:none;stroke:#3089d5;stroke-miterlimit:10;stroke-dasharray:4.06 2.03;}</style></defs><title>LoadButton</title><path class="cls-1" d="M2499.81-209.72a2,2,0,0,0-.74-1.62,3.21,3.21,0,0,0-2.09-.61,2.87,2.87,0,0,0-1.89.63,1.89,1.89,0,0,0-.76,1.54h-1.69a3.17,3.17,0,0,1,.56-1.83,3.64,3.64,0,0,1,1.56-1.26,5.22,5.22,0,0,1,2.22-.46,5.1,5.1,0,0,1,3.33,1,3.25,3.25,0,0,1,1.19,2.67,2.69,2.69,0,0,1-.55,1.62,3.68,3.68,0,0,1-1.52,1.15,3,3,0,0,1,2.26,3,3.31,3.31,0,0,1-1.28,2.73,5.42,5.42,0,0,1-3.43,1,5.82,5.82,0,0,1-2.32-.45,3.73,3.73,0,0,1-1.62-1.29,3.37,3.37,0,0,1-.58-2h1.69a2.06,2.06,0,0,0,.8,1.67,3,3,0,0,0,2,.67,3.47,3.47,0,0,0,2.2-.64,2,2,0,0,0,.82-1.7c0-1.5-.93-2.26-2.79-2.29h-1.58v-1.38h1.58a3.07,3.07,0,0,0,1.94-.58A1.93,1.93,0,0,0,2499.81-209.72Z" transform="translate(-2492.44 213.85)"/><path class="cls-1" d="M2509.54-200.35a3.34,3.34,0,0,1-.23-1,3.62,3.62,0,0,1-2.71,1.18,3.36,3.36,0,0,1-2.31-.79,2.59,2.59,0,0,1-.9-2,2.7,2.7,0,0,1,1.13-2.31,5.3,5.3,0,0,1,3.18-.82h1.58v-.75a1.79,1.79,0,0,0-.51-1.35,2,2,0,0,0-1.5-.51,2.39,2.39,0,0,0-1.46.44,1.3,1.3,0,0,0-.59,1.06h-1.63a2.21,2.21,0,0,1,.5-1.37,3.31,3.31,0,0,1,1.37-1.05,4.59,4.59,0,0,1,1.91-.39,3.74,3.74,0,0,1,2.57.82,3,3,0,0,1,1,2.27v4.37a5.44,5.44,0,0,0,.33,2.09v.14Zm-2.7-1.24a2.91,2.91,0,0,0,1.45-.4,2.33,2.33,0,0,0,1-1V-205H2508c-2,0-3,.58-3,1.75a1.49,1.49,0,0,0,.51,1.2A2,2,0,0,0,2506.84-201.59Z" transform="translate(-2492.44 213.85)"/><path class="cls-1" d="M2519.6-208.52h-4.39v8.17h-1.63v-9.51h6Z" transform="translate(-2492.44 213.85)"/><path class="cls-1" d="M2529-205a5.69,5.69,0,0,1-1,3.49,3.18,3.18,0,0,1-2.69,1.33,3.46,3.46,0,0,1-2.73-1.1v4.58H2521v-13.16h1.48l.08,1.05a3.34,3.34,0,0,1,2.76-1.23,3.24,3.24,0,0,1,2.71,1.29,5.73,5.73,0,0,1,1,3.6Zm-1.63-.19a4.18,4.18,0,0,0-.68-2.54,2.22,2.22,0,0,0-1.88-.93,2.41,2.41,0,0,0-2.22,1.31v4.54a2.4,2.4,0,0,0,2.24,1.3,2.18,2.18,0,0,0,1.85-.92A4.6,4.6,0,0,0,2527.41-205.19Z" transform="translate(-2492.44 213.85)"/><path class="cls-1" d="M2534.12-202.74l2.21-7.12h1.75l-3.83,11c-.59,1.59-1.53,2.38-2.82,2.38l-.31,0-.6-.11V-198l.44,0a2.14,2.14,0,0,0,1.28-.33,2.4,2.4,0,0,0,.76-1.22l.36-1-3.39-9.4h1.78Z" transform="translate(-2492.44 213.85)"/><path class="cls-1" d="M2547.11-204.49H2546v4.14h-1.63v-4.14h-1.14l-2.66,4.14h-2.06l3.4-4.93-3.08-4.58h2l2.45,3.93h1.12v-3.93H2546v3.93h1.1l2.47-3.93h2l-3.08,4.59,3.4,4.92h-2.06Z" transform="translate(-2492.44 213.85)"/><path class="cls-1" d="M2559.18-200.35a3.34,3.34,0,0,1-.23-1,3.62,3.62,0,0,1-2.71,1.18,3.36,3.36,0,0,1-2.31-.79,2.59,2.59,0,0,1-.9-2,2.7,2.7,0,0,1,1.13-2.31,5.32,5.32,0,0,1,3.18-.82h1.58v-.75a1.79,1.79,0,0,0-.51-1.35,2,2,0,0,0-1.5-.51,2.39,2.39,0,0,0-1.46.44,1.3,1.3,0,0,0-.59,1.06h-1.63a2.21,2.21,0,0,1,.5-1.37,3.38,3.38,0,0,1,1.37-1.05A4.59,4.59,0,0,1,2557-210a3.74,3.74,0,0,1,2.57.82,3,3,0,0,1,1,2.27v4.37a5.44,5.44,0,0,0,.33,2.09v.14Zm-2.7-1.24a2.91,2.91,0,0,0,1.45-.4,2.33,2.33,0,0,0,1-1V-205h-1.27c-2,0-3,.58-3,1.75a1.49,1.49,0,0,0,.51,1.2A2,2,0,0,0,2556.48-201.59Z" transform="translate(-2492.44 213.85)"/><path class="cls-1" d="M2567-200.18a4.13,4.13,0,0,1-3.14-1.27,4.72,4.72,0,0,1-1.22-3.4v-.29a5.7,5.7,0,0,1,.54-2.53,4.23,4.23,0,0,1,1.52-1.74,3.75,3.75,0,0,1,2.1-.63,3.56,3.56,0,0,1,2.88,1.22,5.28,5.28,0,0,1,1,3.5v.68h-6.44a3.4,3.4,0,0,0,.82,2.27,2.58,2.58,0,0,0,2,.86,2.77,2.77,0,0,0,1.46-.35,3.56,3.56,0,0,0,1-.93l1,.77A4,4,0,0,1,2567-200.18Zm-.2-8.52a2.14,2.14,0,0,0-1.65.71,3.5,3.5,0,0,0-.83,2h4.77v-.12a3.09,3.09,0,0,0-.67-1.92A2,2,0,0,0,2566.84-208.7Z" transform="translate(-2492.44 213.85)"/><path class="cls-1" d="M2579.6-208.55h-3.19v8.2h-1.62v-8.2h-3.13v-1.31h7.94Z" transform="translate(-2492.44 213.85)"/><path class="cls-1" d="M2584.55-200.18a4.15,4.15,0,0,1-3.15-1.27,4.76,4.76,0,0,1-1.21-3.4v-.29a5.7,5.7,0,0,1,.54-2.53,4.28,4.28,0,0,1,1.51-1.74,3.81,3.81,0,0,1,2.11-.63,3.57,3.57,0,0,1,2.88,1.22,5.28,5.28,0,0,1,1,3.5v.68h-6.44a3.35,3.35,0,0,0,.82,2.27,2.56,2.56,0,0,0,2,.86,2.8,2.8,0,0,0,1.46-.35,3.52,3.52,0,0,0,1-.93l1,.77A4,4,0,0,1,2584.55-200.18Zm-.2-8.52a2.14,2.14,0,0,0-1.65.71,3.5,3.5,0,0,0-.83,2h4.76v-.12A3.08,3.08,0,0,0,2586-208,2,2,0,0,0,2584.35-208.7Z" transform="translate(-2492.44 213.85)"/><path class="cls-1" d="M2594.25-204.93a6.58,6.58,0,0,1,.92-3.75,2.89,2.89,0,0,1,2.53-1.36,3.16,3.16,0,0,1,1.31.26v-4.07h1.62v4.12a3.16,3.16,0,0,1,1.45-.31,2.92,2.92,0,0,1,2.54,1.36,7,7,0,0,1,.92,3.93,5.51,5.51,0,0,1-.92,3.34,3,3,0,0,1-2.53,1.24,3.46,3.46,0,0,1-1.46-.28v3.75H2599v-3.72a3.29,3.29,0,0,1-1.33.25,3,3,0,0,1-2.52-1.24,5.61,5.61,0,0,1-.91-3.39Zm1.62.18a4.28,4.28,0,0,0,.57,2.43,1.88,1.88,0,0,0,1.65.82,2.69,2.69,0,0,0,.92-.15v-6.9a2.44,2.44,0,0,0-.91-.15,1.84,1.84,0,0,0-1.65.95A6,6,0,0,0,2595.87-204.75Zm8-.18a5.3,5.3,0,0,0-.61-2.79,1.92,1.92,0,0,0-1.7-1,2.44,2.44,0,0,0-1,.17v6.88a2.87,2.87,0,0,0,1,.15,2,2,0,0,0,1.69-.84A4.5,4.5,0,0,0,2603.91-204.93Z" transform="translate(-2492.44 213.85)"/><path class="cls-1" d="M2607.22-205.2a5.54,5.54,0,0,1,.55-2.51,4,4,0,0,1,1.53-1.72,4.1,4.1,0,0,1,2.23-.61,4,4,0,0,1,3.15,1.35,5.14,5.14,0,0,1,1.2,3.57v.12a5.62,5.62,0,0,1-.54,2.49,4,4,0,0,1-1.52,1.72,4.17,4.17,0,0,1-2.27.61,4,4,0,0,1-3.13-1.34,5.17,5.17,0,0,1-1.2-3.56Zm1.63.2a4.08,4.08,0,0,0,.74,2.54,2.33,2.33,0,0,0,2,1,2.33,2.33,0,0,0,2-1,4.4,4.4,0,0,0,.73-2.72,4.07,4.07,0,0,0-.74-2.53,2.37,2.37,0,0,0-2-1,2.35,2.35,0,0,0-1.94.95A4.46,4.46,0,0,0,2608.85-205Z" transform="translate(-2492.44 213.85)"/><path class="cls-1" d="M2624.73-208.55h-3.19v8.2h-1.63v-8.2h-3.13v-1.31h7.95Z" transform="translate(-2492.44 213.85)"/><path class="cls-1" d="M2625.61-205.2a5.54,5.54,0,0,1,.55-2.51,4.05,4.05,0,0,1,1.52-1.72,4.14,4.14,0,0,1,2.24-.61,4,4,0,0,1,3.14,1.35,5.14,5.14,0,0,1,1.2,3.57v.12a5.75,5.75,0,0,1-.53,2.49,4,4,0,0,1-1.52,1.72,4.22,4.22,0,0,1-2.27.61,4,4,0,0,1-3.13-1.34,5.12,5.12,0,0,1-1.2-3.56Zm1.63.2a4.07,4.07,0,0,0,.73,2.54,2.35,2.35,0,0,0,2,1,2.34,2.34,0,0,0,2-1,4.47,4.47,0,0,0,.73-2.72,4,4,0,0,0-.75-2.53,2.34,2.34,0,0,0-2-1,2.35,2.35,0,0,0-1.94.95A4.46,4.46,0,0,0,2627.24-205Z" transform="translate(-2492.44 213.85)"/><line class="cls-2" y1="19.15" x2="142.9" y2="19.15"/></svg>